<?xml version="1.0" encoding="UTF-8" standalone="no"?>
<!-- Created with Inkscape (http://www.inkscape.org/) -->
<svg id="svg4136" xmlns:rdf="http://www.w3.org/1999/02/22-rdf-syntax-ns#" xmlns="http://www.w3.org/2000/svg" height="500" viewBox="0 0 500 500" width="500" version="1.1" xmlns:cc="http://creativecommons.org/ns#" xmlns:dc="http://purl.org/dc/elements/1.1/">
 <metadata id="metadata4142">
  <rdf:RDF>
   <cc:Work rdf:about="">
    <dc:format>image/svg+xml</dc:format>
    <dc:type rdf:resource="http://purl.org/dc/dcmitype/StillImage"/>
    <dc:title/>
   </cc:Work>
  </rdf:RDF>
 </metadata>
 <path id="path4146" fill="#fff" d="m80.582 409.15c-3.9703-0.93737-7.6903-3.538-10.561-7.383-1.5159-2.0304-2.0618-4.2644-2.0618-8.4382 0-5.3841 0.53588-6.6044 10.397-23.677 19.368-33.531 128.28-221.84 142.86-247 7.9661-13.75 15.443-26.055 16.615-27.345 6.4967-7.1479 17.784-7.1479 24.254 0 1.1673 1.2898 14.046 23.045 28.619 48.345s51.949 90.167 83.057 144.15c31.108 53.982 57.085 99.9 57.726 102.04 2.3367 7.7993-2.9364 17.081-10.972 19.313-4.3098 1.1973-334.86 1.1933-339.93-0.004zm307.53-32.47c-0.31145-0.81161-12.575-22.299-27.253-47.75s-37.708-65.399-51.179-88.774c-63.007-109.33-59.447-103.4-60.897-101.42-0.73283 1.0022-8.6169 14.445-17.52 29.872-8.9033 15.427-39.725 68.724-68.493 118.44-28.768 49.714-52.305 90.551-52.305 90.75 0 0.19877 62.598 0.3614 139.11 0.3614 122.22 0 139.04-0.17914 138.54-1.4756zm-149.38-19.44c-7.6663-1.9617-12.265-7.6813-12.271-15.261-0.007-9.0032 8.0061-14.783 20.496-14.783 7.4943 0 13.602 2.0584 17.411 5.8676 1.7072 1.7072 2.0885 3.3261 2.0885 8.866 0 7.9644-1.2778 10.302-7.3161 13.386-4.5895 2.3435-14.953 3.321-20.409 1.9249zm4.1401-41.509c-6.6299-2.8867-7.0219-4.2602-7.7794-27.259-0.37718-11.451-1.1051-28.245-1.6177-37.32-1.4945-26.461-1.3032-52.518 0.39605-53.929 0.92288-0.76592 6.525-1.2205 16.127-1.3086 12.997-0.11926 14.864 0.0707 16.003 1.6285 1.7438 2.3848 2.773 10.554 2.061 16.359-0.32043 2.6125-1.9591 17.575-3.6414 33.25-1.6824 15.675-3.6751 32.55-4.4284 37.5-0.75323 4.95-1.6842 12.375-2.0688 16.5-0.85503 9.1704-2.5614 12.724-7.0008 14.579-4.0725 1.7016-4.1419 1.7016-8.0505-0.00019z"/>
</svg>
