<?xml version="1.0" encoding="UTF-8" standalone="no"?>
<!-- Created with Inkscape (http://www.inkscape.org/) -->
<svg id="svg4136" xmlns:rdf="http://www.w3.org/1999/02/22-rdf-syntax-ns#" xmlns="http://www.w3.org/2000/svg" height="500" viewBox="0 0 500 500" width="500" version="1.1" xmlns:cc="http://creativecommons.org/ns#" xmlns:dc="http://purl.org/dc/elements/1.1/">
 <metadata id="metadata4142">
  <rdf:RDF>
   <cc:Work rdf:about="">
    <dc:format>image/svg+xml</dc:format>
    <dc:type rdf:resource="http://purl.org/dc/dcmitype/StillImage"/>
    <dc:title/>
   </cc:Work>
  </rdf:RDF>
 </metadata>
 <path id="path4146" fill="#fff" d="m247.39 454.86c0-1.0225-0.40854-2.2865-0.90787-2.809s-2.1558-3.2-3.6811-5.95c-6.3939-11.528-8.3834-15.184-10.068-18.5-0.97774-1.925-2.4905-4.2764-3.3617-5.2252-0.87119-0.94888-2.5764-3.5845-3.7894-5.857-4.2483-7.9591-5.7062-10.374-7.442-12.326-0.9625-1.0827-1.75-2.5212-1.75-3.1966 0-0.67546-0.3375-1.3781-0.75-1.5614-0.4125-0.18333-3.8614-5.0583-7.6643-10.833-3.8028-5.775-12.128-17.425-18.5-25.888-12.69-16.855-18.224-24.256-23.265-31.112-1.8196-2.475-3.5363-4.725-3.8148-5s-1.3705-1.5201-2.4267-2.767c-1.8954-2.2375-1.8947-2.2895 0.0546-4 1.0862-0.95317 2.6706-2.183 3.5208-2.733 6.2285-4.0292 10.42-6.8891 10.845-7.3995 0.275-0.33028 1.4-1.1695 2.5-1.8649 6.3612-4.0216 20.897-14.523 21.735-15.702 0.40408-0.56874 0.74158-0.63398 0.75-0.14497 0.0128 0.74514-5.9852 8.0189-13.235 16.049-3.3001 3.6557-3.3381 3.5985 15.675 23.614 4.991 5.2542 10.319 11.087 11.841 12.963 1.5215 1.8752 6.8721 7.5889 11.89 12.697 5.0181 5.1081 8.8808 9.2875 8.5836 9.2875-0.29714 0 1.0347 1.575 2.9597 3.5 4.5919 4.5919 6.2633 4.527 6.4341-0.25 0.9297-25.99 0.21285-36.239-3.5461-50.702-2.3933-9.2082-7.3092-22.129-10.767-28.298-5.0474-9.0062-6.1999-10.953-7.909-13.363-1.0194-1.4371-1.5292-2.9371-1.1329-3.3333 0.39625-0.39625 0.1017-0.57046-0.65455-0.38712-0.75625 0.18333-1.5812-0.22917-1.8333-0.91667-0.52217-1.4241 3.2755-1.7594 4.1371-0.3653 0.30073 0.48659 1.7898 1.1308 3.309 1.4316s6.3622 1.4742 10.762 2.6075c13.029 3.356 25.925 2.3261 42.845-3.4217 2.6646-0.90518 5.1068-1.3838 5.4271-1.0635 0.32025 0.32026-0.519 1.8151-1.865 3.3218-3.123 3.496-5.9217 7.5672-9.1016 13.24-1.3874 2.475-3.4804 6.1908-4.651 8.2573s-2.1466 3.9743-2.1687 4.2395c-0.067 0.80093-1.104 3.8522-2.2101 6.5032-0.57372 1.375-1.41 3.4-1.8584 4.5-0.44842 1.1-2.0008 6.725-3.4496 12.5-2.2275 8.8786-2.6976 13.28-3.0441 28.5-0.25822 11.342-0.0306 18.555 0.61554 19.5 0.82986 1.214 6.1041-3.6472 27.666-25.5 14.652-14.85 26.997-26.893 27.432-26.762 0.4352 0.13091 0.53433-0.43159 0.22028-1.25-0.31405-0.8184-0.0832-1.488 0.51294-1.488 0.59616 0 1.8013-1.0948 2.6781-2.4329 1.6432-2.5079 1.1487-4.6387-1.7964-7.7391-4.1593-4.3787-12.752-14.662-12.752-15.26 0-0.39079 0.71395 0.003 1.5866 0.87603 0.87261 0.87261 3.2351 2.8147 5.25 4.3157s3.8884 2.9906 4.1634 3.3102c0.275 0.31955 1.9625 1.4316 3.75 2.4713s3.25 2.2433 3.25 2.6747c0 0.43141 0.5625 0.79483 1.25 0.80759 0.6875 0.0128 2.9388 1.4753 5.0029 3.25 6.2049 5.335 9.5032 7.7268 10.655 7.7268 0.60051 0 1.0918 0.35298 1.0918 0.78439 0 0.43142 1.3505 1.5822 3.0012 2.5572l3.0011 1.7728-3.2464 4.1928c-1.7855 2.306-4.7336 5.9928-6.5513 8.1928s-3.6332 4.45-4.0343 5c-1.5105 2.071-16.615 21.048-17.62 22.138-3.6967 4.0081-21.501 28.28-22.822 31.112-0.57712 1.2375-1.3209 2.25-1.6527 2.25-0.33188 0-1.7159 1.8-3.0756 4s-2.8159 4-3.2361 4c-0.42016 0-0.76393 0.47532-0.76393 1.0563 0 0.58094-3.6 6.658-8 13.505-4.4 6.8466-8 12.896-8 13.444 0 0.54748-0.45 0.99541-1 0.99541s-1 0.48142-1 1.0698c0 0.58841-1.3716 3.0634-3.048 5.5s-2.6889 4.4371-2.25 4.4455c0.43892 0.008 0.29344 0.34592-0.32329 0.75s-2.3534 3.101-3.8592 5.9932c-3.0371 5.8332-4.5194 7.3093-4.5194 4.5005zm-59-191.26c-1.2068-0.77988-1.0486-0.97237 0.80902-0.98469 1.2876-0.009 2.0356 0.42706 1.691 0.98469-0.74319 1.2025-0.63926 1.2025-2.5 0zm38.854 0.3125c-0.1948-0.44687-2.4739-1.8866-5.0648-3.1994-3.7611-1.9058-5.5752-2.2532-9-1.7233-2.3592 0.36499-6.0119 0.90106-8.1171 1.1912-2.1052 0.2902-4.947 0.95319-6.3151 1.4733-3.245 1.2338-6.3572 1.2072-6.3572-0.0543 0-0.55 0.81-1 1.8-1s2.2275-0.38714 2.75-0.86031c0.5225-0.47318 3.3125-1.6871 6.2-2.6976s5.25-2.3262 5.25-2.9239c0-0.59766-2.6926-2.4213-5.9836-4.0525s-5.991-3.3033-6-3.7158-0.50948-0.75-1.1121-0.75c-0.6026 0-2.4402-0.95743-4.0836-2.1276-2.781-1.9802-3.9205-2.096-16.451-1.671-7.4047 0.25114-13.694 0.0836-13.975-0.37238-0.28179-0.45595 1.0627-0.82899 2.9877-0.82899s3.7781-0.45 4.118-1c0.33992-0.55 1.4937-1 2.5639-1 2.3402 0 9.5912-3.4648 16.436-7.8539 9.2169-5.91 22.745-20.435 28.078-30.146 1.0571-1.925 2.1583-3.725 2.4472-4 0.53415-0.50852 6.4444-12.611 9.2916-19.027 2.1351-4.811 6.1044-16.205 8.1773-23.473 0.94115-3.3 2.0885-7.125 2.5497-8.5 4.7916-14.286 11.779-62.225 12.098-83 0.15519-10.108 0.35056-9.0248 1.8036 10 0.6091 7.975 1.521 17.425 2.0265 21 0.50546 3.575 1.4419 10.325 2.0809 15 1.0255 7.5022 5.2901 28.142 7.8514 38 2.9707 11.433 7.5976 24.743 11.82 34 1.3796 3.025 2.6132 5.95 2.7412 6.5 0.37429 1.608 1.869 4.9163 2.7108 6 0.42723 0.55 3.9446 5.773 7.8163 11.607 7.8119 11.77 22.761 26.835 26.674 26.88 0.64166 0.007 1.3167 0.35091 1.5 0.76341 0.90411 2.0343 16.318 8.25 20.459 8.25 1.3058 0 2.3743 0.3976 2.3743 0.88356 0 0.49329-5.7615 0.64988-13.044 0.35452-12.404-0.50307-16.263 0.059-18.956 2.7603-0.275 0.27587-1.5125 1.0641-2.75 1.7516s-3.2625 1.8125-4.5 2.5-2.5806 1.7-2.9847 2.25c-0.40408 0.55-0.74158 0.59276-0.75 0.095-0.008-0.49774-0.91531-0.0905-2.0153 0.90499-2.3027 2.0839-2.5807 3.5-0.68715 3.5 0.72206 0 3.6449 1.125 6.4951 2.5s5.8595 2.5 6.6872 2.5c0.82769 0 1.5049 0.50888 1.5049 1.1308 0 0.76914-1.1994 0.89865-3.75 0.40491-17.445-3.3771-22.977-4.0025-24.495-2.769-2.2082 1.7948-8.7552 5.2216-8.7552 4.5826 0-0.33912 1.2181-1.6633 2.707-2.9426 1.4888-1.2793 2.3709-2.6621 1.9602-3.0728-1.0361-1.0361-36.123-1.7322-44.123-0.87545-6.798 0.72801-7.7033 1.6028-4.8832 4.719 0.91329 1.0092 1.4102 2.0852 1.1042 2.3912s-0.71574 0.19074-0.91053-0.25613zm-8.8542-13.204c0-0.49038 1.1747-1.1864 2.6104-1.5468 1.4357-0.36034 4.6982-1.5865 7.25-2.7248s6.2146-2.7561 8.1396-3.5952c1.925-0.83908 5.7217-2.5867 8.4372-3.8836 2.7154-1.2969 5.3017-2.358 5.7473-2.358 0.44559 0 3.8489 1.394 7.5628 3.0977 21.437 9.8337 28.253 12.257 28.253 10.043 0-0.47275 1.5702-2.3852 3.4894-4.25 3.3213-3.2271 4.6561-6.8904 2.5106-6.8904-0.55 0-1-0.59015-1-1.3114 0-0.72129-0.7875-2.1973-1.75-3.2799-1.8072-2.0328-3.6045-5.0434-7.4933-12.552-1.2412-2.3964-2.5051-4.582-2.8088-4.857-0.55018-0.49826-4.2924-8.0494-4.4603-9-0.0486-0.275-1.1256-2.75-2.3935-5.5-4.298-9.3223-4.9399-10.988-8.6731-22.5-2.051-6.325-4.0547-12.4-4.4526-13.5-0.39789-1.1-1.2506-4.475-1.8948-7.5-0.64427-3.025-1.5702-7.3-2.0575-9.5-0.48737-2.2-1.3946-7.6-2.0161-12-0.62147-4.4-1.5361-9.8-2.0324-12-0.49638-2.2-1.0562-4.9-1.2441-6-0.18789-1.1-0.67504 0.7-1.0826 4-1.1213 9.0799-3.5788 24.472-4.6702 29.25-2.7513 12.046-3.218 13.905-3.9533 15.75-0.43844 1.1-1.3432 4.025-2.0106 6.5-0.66736 2.475-1.5549 4.95-1.9722 5.5-0.41736 0.55-1.1217 2.35-1.5652 4-2.975 11.068-13.53 33.246-22.825 47.96l-5.6605 8.9602 5.2241 5.2898c5.0664 5.1301 6.7924 6.2478 6.7924 4.3982zm25.935-28.462c-7.7336-5.3516-6.9056-16.026 1.552-20.008 3.4286-1.6144 4.4613-1.702 7.4946-0.63571 7.595 2.6698 10.785 9.4712 7.5956 16.193-1.8915 3.986-4.2152 5.5734-9.2838 6.3422-3.0078 0.45623-4.5321 0.0644-7.3585-1.8914zm65.565 41.354c-0.33992-0.55 0.33508-1 1.5-1s1.8399 0.45 1.5 1c-0.33992 0.55-1.0149 1-1.5 1-0.48508 0-1.1601-0.45-1.5-1zm-192.91-55.78c-1.611-3.6977-5.0985-11.362-7.75-17.033-2.6516-5.6703-4.821-10.57-4.821-10.888 0-0.31791-2.475-5.6488-5.5-11.846-3.025-6.1976-5.5-11.603-5.5-12.013 0-0.90431-5.1842-11.741-5.9529-12.444-0.49096-0.44868-3.0256-5.1653-10.21-19-1.2853-2.475-2.5619-4.7253-2.8369-5.0008-0.275-0.27541-1.1987-1.8504-2.0527-3.5-3.4256-6.6169-6.4798-12.026-7.0577-12.499-0.85587-0.70099-3.9884-6.9177-3.6598-7.263 0.14864-0.15617-0.74224-1.3707-1.9797-2.699s-2.25-3.0052-2.25-3.7265c0-0.72129-0.45-1.3114-1-1.3114s-1-0.44571-1-0.99046-3.3151-6.0964-7.3669-12.337l-7.371-11.347 23.117-1.194c12.714-0.65669 27.392-1.6318 32.617-2.167 5.225-0.53514 11.525-1.1486 14-1.3633 17.026-1.4769 49.035-6.3056 63.5-9.5792 3.5354-0.80008 6.1034-1.254 14.068-2.4863 1.1372-0.17597 6.6836-1.1278 12.325-2.1153 11.56-2.0233 12.064-1.8306 12.092 4.6239 0.008 1.9496 1.3435 12.509 2.9668 23.465 2.6202 17.684 2.9669 21.88 1.6864 20.407-0.19915-0.22917-2.1767-5.1417-4.3946-10.917-4.6579-12.129-4.3239-11.968-16.743-8.0674-3.85 1.2091-8.35 2.4311-10 2.7156-1.65 0.28447-3.4275 0.93001-3.95 1.4345-0.5225 0.50452-1.7339 0.91731-2.6919 0.91731-0.95805 0-7.0556 1.5756-13.55 3.5014s-13.608 4.0021-15.808 4.614-4.9 1.4654-6 1.8968c-1.1 0.43132-5.15 1.5519-9 2.4902-14.584 3.5544-15.841 4.5325-10.275 7.9976 1.767 1.1 4.8017 2.9974 6.7437 4.2164 3.6125 2.2676 14.547 7.7546 19.031 9.5502 1.375 0.55055 3.4 1.3681 4.5 1.8168 5.5558 2.2663 17.364 5.6333 22.626 6.4513 17.149 2.6663 45.438 2.8395 50.17 0.30715 1.0317-0.55216 2.0138-0.85497 2.1823-0.67291 0.16855 0.18206-3.4494 4.3289-8.0399 9.2153-4.5905 4.8863-10.227 11.467-12.526 14.624-5.5559 7.6295-9.5148 19.961-11.633 36.236-0.26805 2.0594-0.86151 3.5132-1.3188 3.2306-0.4573-0.28263-2.0699-3.0926-3.5835-6.2444-2.758-5.743-8.5475-15.401-10.718-17.88-0.63671-0.72716-3.8555-4.6004-7.1528-8.6071-5.7617-7.0013-20.315-20.814-22.804-21.643-0.66019-0.21997-1.4254-0.69165-1.7004-1.0482-0.275-0.35653-2.075-1.7299-4-3.0519s-3.7753-2.8013-4.1118-3.2872c-0.3365-0.48597-1.0115-0.90245-1.5-0.9255-1.3902-0.0656-3.8372-1.0734-4.3882-1.8074-1.1835-1.5765-19.915-9.9778-22.25-9.9794-1.0631-0.00071-0.9306 3.6988 0.20642 5.7631 0.52604 0.95504 2.1212 5.3364 3.5449 9.7364s2.9838 8.9 3.467 10c0.48319 1.1 3.3958 9.65 6.4724 19s6.0361 17.781 6.5765 18.736c0.54046 0.95504 0.98266 2.4236 0.98266 3.2636 0 0.83993 0.40064 2.3085 0.89031 3.2636 0.48968 0.95504 1.8903 4.9989 3.1125 8.9864 1.5771 5.1453 2.6976 7.2496 3.8597 7.2487 0.90063-0.00072 6.3419-1.141 12.092-2.534 5.7498-1.393 11.15-2.3446 12-2.1147 0.92167 0.24923 0.63735 0.46485-0.70415 0.53401-1.2375 0.0638-2.25 0.566-2.25 1.116s-0.43308 1-0.9624 1c-1.16 0-20.327 9.1281-21.038 10.019-0.44571 0.55869-3.6937 2.1299-5 2.4187-1.6471 0.36414-12.557 6.1244-12.833 6.7754-0.18334 0.43272-1.3083 0.77466-2.5 0.75988-1.7079-0.0212-2.7869-1.4505-5.0957-6.75zm258.43 6.0128c0-0.78996-7.0014-4.1206-8.145-3.8746-0.35476 0.0763-1.6395-0.76128-2.855-1.8613s-2.5002-1.9448-2.855-1.8773c-0.90216 0.17159-3.5443-0.85055-4.145-1.6035-0.71081-0.891-19.878-10.019-21.038-10.019-0.52932 0-0.9624-0.45-0.9624-1s-1.0125-1.0355-2.25-1.079c-1.2375-0.0434-1.6928-0.30417-1.0117-0.57944 0.68108-0.27528 6.4454 0.72987 12.81 2.2337 13.44 3.1756 13.195 3.2693 15.859-6.0753 0.94071-3.3 2.134-6.7814 2.6518-7.7364 0.51776-0.95504 0.94138-2.4236 0.94138-3.2636 0-0.83993 0.43348-2.3085 0.96329-3.2636 0.52981-0.95504 2.5887-6.6864 4.5753-12.736 1.9866-6.05 4.0281-11.781 4.5367-12.736 0.50857-0.95504 0.92468-2.5525 0.92468-3.55 0-0.99746 0.36603-2.2411 0.81341-2.7636 0.44737-0.5225 2.0854-5 3.64-9.95s3.1838-9.9 3.6205-11c2.1653-5.4549 3.2475-9.5119 2.6869-10.073-1.2517-1.2517-22.761 7.9918-22.761 9.7814 0 0.4351-0.5625 0.81175-1.25 0.837-2.2771 0.0836-15.54 9.3756-23.507 16.469-4.315 3.8418-10.522 10.269-13.794 14.283-3.2718 4.0139-6.9218 8.4697-8.111 9.9018s-2.7635 3.773-3.4984 5.202-1.639 2.8279-2.0092 3.1087c-0.37016 0.28075-2.0669 3.522-3.7706 7.2027-3.3887 7.3213-5.0592 9.1685-5.0604 5.5959-0.00091-2.5746-2.4873-15.145-4.215-21.309-0.61659-2.2-1.2256-4.45-1.3533-5-1.2554-5.4051-7.6782-14.258-19.264-26.553-4.3782-4.646-7.8203-8.5963-7.6492-8.7783 0.17109-0.18206 1.1825 0.13536 2.2476 0.70538 2.9987 1.6049 26.65 2.4132 37.235 1.2726 13.222-1.4248 27.414-4.679 35.75-8.1974 1.2375-0.52229 3.2625-1.3604 4.5-1.8623 9.9964-4.055 29.75-15.148 29.75-16.707 0-0.78248-6.9231-3.1535-14-4.7947-4.125-0.95663-8.4-2.1035-9.5-2.5486-1.1-0.44509-3.8-1.3041-6-1.909-2.2-0.60485-6.7-1.9351-10-2.9562-3.3-1.021-9.15-2.6483-13-3.6161s-7.9-2.1547-9-2.6375c-1.1-0.48283-3.125-1.0861-4.5-1.3407-1.375-0.25455-5.65-1.4485-9.5-2.6532-12.425-3.888-12.086-4.0517-16.743 8.0754-2.2178 5.775-4.1954 10.688-4.3946 10.917-1.2449 1.4325-0.98103-2.3158 1.1931-16.946 1.3462-9.0588 2.8502-19.986 3.3422-24.283 0.49202-4.297 1.1692-8.0873 1.5049-8.423 0.49552-0.49552 10.535 0.96318 23.03 3.3461 1.1373 0.21689 4.5427 0.82245 7.5677 1.3457 3.025 0.52324 7.975 1.3825 11 1.9094 25.958 4.5219 42.368 7.1865 47 7.6317 3.025 0.29081 10 0.95816 15.5 1.483 11.661 1.1128 56.052 3.9645 62.223 3.9972l4.2227 0.02241-7.4727 11.51c-4.11 6.3302-7.4727 11.955-7.4727 12.5 0 0.54475-0.45 0.99046-1 0.99046s-1 0.59015-1 1.3114c0 0.72129-1.0125 2.3982-2.25 3.7265s-2.1984 2.6506-2.1354 2.9386c0.22862 1.0442-3.0063 7.0235-3.7998 7.0235-0.44814 0-0.81479 0.4302-0.81479 0.95599 0 0.5258-1.4082 3.3383-3.1294 6.25-2.8853 4.881-8.3162 14.921-14.765 27.294-1.4332 2.75-2.852 5.225-3.1529 5.5-0.75516 0.69011-5.9529 11.532-5.9529 12.417 0 0.39446-2.1231 5.0746-4.7181 10.4-2.5949 5.3257-4.7701 9.9081-4.8338 10.183-0.23176 1.0013-2.3167 5.7014-6.6539 15-2.4371 5.225-5.7503 12.525-7.3627 16.223-2.3592 5.4104-3.3709 6.7284-5.1816 6.75-1.2375 0.0148-2.25-0.31696-2.25-0.73722z"/>
</svg>
