<?xml version="1.0" encoding="UTF-8" standalone="no"?>
<!-- Created with Inkscape (http://www.inkscape.org/) -->
<svg id="svg4156" xmlns:rdf="http://www.w3.org/1999/02/22-rdf-syntax-ns#" xmlns="http://www.w3.org/2000/svg" height="500" viewBox="0 0 500 500" width="500" version="1.1" xmlns:cc="http://creativecommons.org/ns#" xmlns:dc="http://purl.org/dc/elements/1.1/">
 <metadata id="metadata4162">
  <rdf:RDF>
   <cc:Work rdf:about="">
    <dc:format>image/svg+xml</dc:format>
    <dc:type rdf:resource="http://purl.org/dc/dcmitype/StillImage"/>
    <dc:title/>
   </cc:Work>
  </rdf:RDF>
 </metadata>
 <path id="path4166" fill="#fff" d="m229.75 422.36c-10.975-1.5271-27.681-5.6474-35.637-8.7892-24.92-9.8414-49.344-27.714-64.952-47.528l-6.4069-8.134-5.396 0.67419c-2.9678 0.37081-10.619 2.2203-17.002 4.11-13.251 3.9228-18.106 4.8924-18.106 3.6161 0-0.49037 5.7831-6.7056 12.851-13.812 7.0682-7.106 13.329-13.83 13.913-14.941 0.83941-1.5983 0.44523-3.4658-1.884-8.9259-7.4933-17.565-11.243-37.052-11.268-58.553-0.0304-26.52 5.1882-47.491 17.853-71.742 7.5231-14.406 15.347-25.036 27.043-36.742 23.964-23.984 53.958-39.073 87.15-43.843 8.785-1.2624 8.8529-1.2943 10.605-4.9836 0.96981-2.0422 2.8983-8.3204 4.2855-13.952 4.2976-17.445 5.7016-21.739 7.1096-21.739 0.73792 0 1.3417 0.25318 1.3417 0.56262 0 2.1313 8.2998 32.105 9.7257 35.123 1.5337 3.2464 2.3845 3.8677 6.2743 4.582 9.6969 1.7807 29.177 6.8161 35.332 9.1327 20.443 7.6947 38.566 19.479 54.723 35.582 21.889 21.817 35.502 46.79 42.15 77.329 1.8969 8.7132 2.2181 13.229 2.2181 31.188 0 24.007-1.4413 33.05-8.3584 52.441l-3.8898 10.904 3.6375 4.3276c2.0006 2.3802 4.5487 5.145 5.6624 6.144 7.448 6.6808 19.408 19.063 19.02 19.691-0.59294 0.95938-7.3427-0.42976-19.685-4.0514-5.3295-1.5638-12.305-3.1312-15.5-3.483l-5.8099-0.63974-4.5 6.293c-5.9375 8.3034-21.776 24.253-30.339 30.552-21.593 15.885-45.362 25.67-71.024 29.239-7.3615 1.0239-34.661 1.2662-41.137 0.36518zm53.649-14.054c28.261-7.3773 50.861-20.644 70.122-41.162 4.2743-4.5533 8.2276-9.1312 8.7852-10.173 0.93705-1.7509 0.60293-1.8943-4.4144-1.8943-5.423 0-6.6422-0.82091-6.6422-4.4723 0-1.6886 17.711-33.44 20.015-35.882 2.4596-2.6069 5.181-1.4205 7.9198 3.4526 1.26 2.2419 2.6591 3.6995 3.1091 3.2391 1.8063-1.848 7.8351-24.449 8.9996-33.738 1.6146-12.88 0.68531-34.015-2.0695-47.066-7.8011-36.958-30.264-69.504-62.428-90.452-13.925-9.0687-30.982-16.161-47.055-19.566-10.911-2.3112-10.861-2.3297-8.2594 3.0252 3.8312 7.8858 3.6309 7.9592-21.732 7.9592-19.774 0-21.884-0.16352-22.891-1.7742-0.87117-1.3937-0.62534-2.6614 1.1463-5.9114 1.2404-2.2755 2.0304-4.3621 1.7555-4.637-0.97632-0.97632-15.165 2.0547-25.351 5.4156-20.915 6.9008-39.718 18.497-55.718 34.36-20.852 20.675-35.076 47.894-40.001 76.547-2.2819 13.276-2.2729 34.813 0.0199 48 1.6871 9.7033 6.9528 28.163 8.5051 29.816 0.42159 0.4489 1.9707-1.2386 3.4425-3.75 2.5537-4.3576 4.6816-5.4833 7.1848-3.8009 1.3536 0.90972 21.407 35.62 21.407 37.054 0 2.3611-3.2959 4.1812-7.5714 4.1812-2.4357 0-4.4286 0.38385-4.4286 0.85301s3.6446 4.7484 8.099 9.5095c20.29 21.686 49.296 37.351 79.901 43.15 5.3498 1.0138 13.09 1.3261 27 1.0893 17.904-0.3047 20.454-0.58077 31.149-3.3728zm-56.451-67.101c-4.5936-0.7001-5.5267-1.4698-21.5-17.735-9.1839-9.352-19.623-19.646-23.198-22.876l-6.5-5.8722-0.30999-24.572-0.31-24.572 4.1535-5c6.5092-7.8359 35.669-38.122 40.573-42.141l4.4194-3.6214 22.964-0.47708 22.964-0.47708 4.4346 2.5989c4.1659 2.4414 34.5 33.144 43.589 44.118l4.1411 5-0.31 24.572-0.30999 24.572-6.5 5.8726c-3.575 3.2299-14.222 13.737-23.66 23.35l-17.16 17.477-21.34 0.25776c-11.737 0.14177-23.5-0.0716-26.142-0.47411zm42.233-7.5856c1.7182-1.0619 1.2775-3.2447-2.298-11.381-6.9631-15.845-5.2693-19.058 3.5512-6.7359 2.9238 4.0843 5.7718 8.1784 6.3289 9.0978 0.86575 1.4288 2.6362 0.12731 12.179-8.9531 6.1416-5.8436 13.075-12.904 15.407-15.69l4.2404-5.0647-3.4199-2.6046c-1.8809-1.4325-5.5574-4.702-8.1699-7.2655-10.585-10.387-1.9594-10.613 12.5-0.32855l4.75 3.3786v-18.097-18.097l-3.75 2.2182c-2.0625 1.22-7.6693 4.5116-12.46 7.3147-7.8403 4.5878-8.5639 5.2574-7.25 6.7093 2.1148 2.3368 1.7925 5.715-0.79042 8.2847-3.281 3.2643-25.703 17.051-26.475 16.279-0.36088-0.36088 4.1961-5.307 10.127-10.991l10.783-10.335-1.9896-3.891c-3.53-6.9033-13.215-16.704-14.871-15.049-0.27747 0.27747 1.4004 3.7108 3.7286 7.6297 3.9505 6.6497 4.1401 7.299 2.8401 9.7283-1.2077 2.2569-24.463 22.3-25.874 22.3-0.93377 0-17.386-12.701-22.914-17.689l-5.3949-4.8682 4.6449-6.7846c4.5476-6.6425 5.4446-8.6581 3.8531-8.6581-1.017 0-8.1222 7.435-11.558 12.094-4.1076 5.5708-3.574 7.2322 4.8496 15.099 9.7984 9.1507 9.787 10.798-0.0437 6.3183-4.149-1.8908-8.8622-4.3766-10.474-5.524-3.1927-2.2734-4.9646-1.8752-8.3625 1.8795-1.0216 1.1288-4.7224 3.919-8.224 6.2004l-6.3666 4.148 4.7048 5.507c5.8856 6.8892 26.352 26.431 27.289 26.056 0.38214-0.15322 3.0246-3.0911 5.8722-6.5286s5.6611-6.25 6.2523-6.25c1.6102 0 0.11177 6.5544-2.8221 12.344-1.9094 3.768-2.2813 5.4576-1.553 7.0552 0.92895 2.0378 1.5439 2.0963 20.523 1.9524 10.761-0.0815 20.047-0.4456 20.635-0.80901zm-29.681-30.217c-1.2375-0.86324-2.25-2.1896-2.25-2.9476 0-1.0904 2.388-1.378 11.441-1.378 6.7559 0 11.701 0.42094 12.076 1.0279 0.34941 0.56536-0.41153 1.9004-1.691 2.9667-3.0435 2.5365-16.098 2.7572-19.576 0.33091zm-40.016-24.348c6.2448-2.9223 6.6493-3.3093 6.137-5.871-0.40711-2.0356 0.1402-3.561 2.1232-5.9176l2.6717-3.1752-2.3331-0.88799c-5.5313-2.1052-15.694-6.5365-20.083-8.7566l-4.75-2.4028v18.008 18.008l4.7744-2.9377c2.6259-1.6158 7.7829-4.3456 11.46-6.0662zm36.245-60.042c-0.87983-2.7721-8.4101-15.774-9.5403-16.473-1.467-0.90667-4.9392 1.4664-4.9392 3.3757 0 2.563 5.6525 9.8536 9.8521 12.707 4.4075 2.995 5.483 3.0856 4.6274 0.38996zm36.863-9.743c3.1961-3.3674 3.2119-6.5382 0.0347-6.9939-1.5753-0.22595-2.8662 0.90227-5.1488 4.5-3.6601 5.769-7.2282 12.149-7.2282 12.925 0 0.74822 8.7525-6.649 12.342-10.431zm-162.02 142.87c3.0946-1.0647 9.9034-2.5098 15.131-3.2113l9.504-1.2755-2.148-3.5387c-1.1814-1.9463-3.4704-5.9324-5.0868-8.858l-2.9388-5.3193-3.5632 5.2911c-1.9598 2.9101-6.6561 8.3413-10.436 12.069-3.7802 3.728-6.6965 6.7782-6.4806 6.7782 0.21582 0 2.9244-0.87112 6.019-1.9358zm277.59-7.7308c-3.798-3.6667-8.3048-8.8472-10.015-11.512l-3.1095-4.8457-4.9442 8.6227c-2.7193 4.7425-4.7939 8.773-4.6102 8.9566 0.18365 0.18366 4.1627 0.80971 8.8424 1.3912 4.6796 0.58152 10.517 1.6871 12.972 2.4569 7.8596 2.4642 7.9737 1.7945 0.86403-5.0694zm-130.94-218.59c-1.6116-3.4439-3.9415-10.174-5.1775-14.955l-2.2473-8.6932-2.3024 8.705c-1.2663 4.7877-3.6141 11.517-5.2174 14.955l-2.9151 6.25h10.395 10.395l-2.9302-6.2617z"/>
</svg>
