<?xml version="1.0" encoding="UTF-8" standalone="no"?>
<!-- Created with Inkscape (http://www.inkscape.org/) -->
<svg id="svg4136" xmlns:rdf="http://www.w3.org/1999/02/22-rdf-syntax-ns#" xmlns="http://www.w3.org/2000/svg" height="500" viewBox="0 0 500 500" width="500" version="1.1" xmlns:cc="http://creativecommons.org/ns#" xmlns:dc="http://purl.org/dc/elements/1.1/">
 <metadata id="metadata4142">
  <rdf:RDF>
   <cc:Work rdf:about="">
    <dc:format>image/svg+xml</dc:format>
    <dc:type rdf:resource="http://purl.org/dc/dcmitype/StillImage"/>
    <dc:title/>
   </cc:Work>
  </rdf:RDF>
 </metadata>
 <path id="path4146" fill="#fff" d="m53.014 460.21c-5.6965-3.7942-8.6548-10.275-7.6209-16.697 0.75916-4.7153 3.8033-8.0679 44.675-49.202l43.86-44.142-6.9361-9.5442c-38.449-52.9-40.055-125.98-3.97-180.75 24.337-36.942 63.025-62.124 107.14-69.737 5.8274-1.0057 10.928-1.8285 11.334-1.8284 0.40617 0.000069 0.73849-10.066 0.73849-22.369 0-24.537 0.90402-28.988 6.4726-31.867 8.2623-4.2726 17.475-3.2791 22.879 2.4674 2.781 2.957 2.8762 3.7182 3.4562 27.642l0.59651 24.601 11.334 2.2212c101.99 19.986 157.98 131.17 113.29 224.99-3.2345 6.7899-8.8415 16.57-12.46 21.734s-6.579 9.8118-6.579 10.329c0 0.51676 18.557 19.458 41.237 42.092 22.681 22.634 42.008 42.603 42.949 44.374 5.4206 10.204-1.1403 23.474-12.56 25.403-9.1472 1.5454-12.217-0.88605-56.873-45.043l-41.597-41.133-7.7546 5.2925c-16.411 11.2-38.403 20.591-58.458 24.961-14.321 3.121-48.887 3.1263-63.182 0.01-20.313-4.4288-39.206-12.16-55.814-22.84l-8.6417-5.557-9.9929 9.3504c-5.4961 5.1427-25.091 23.846-43.544 41.562s-35.291 33.151-37.419 34.299c-5.3267 2.875-11.671 2.6403-16.554-0.61226zm215.91-79.66c20.907-2.1454 38.91-7.983 55.806-18.095 9.4744-5.6703 17.388-11.64 16.868-12.726-0.19855-0.41424-15.736-15.978-34.527-34.585l-34.166-33.832-8.412 2.167c-6.9874 1.8-9.4831 1.946-14.737 0.86228l-6.3253-1.3047-17.895 17.499c-9.8424 9.6244-25.843 25.082-35.557 34.351l-17.662 16.852 3.9423 2.9956c17.305 13.149 43.288 23.466 64.801 25.73 13.718 1.4438 14.608 1.4466 27.865 0.0861zm-45.681-115.77-3.6732-7.0489-48.412-0.01-48.412-0.01 1.0223 8.0529c2.9892 23.547 14.717 49.956 30.199 68.004l4.3509 5.072 34.299-33.506 34.299-33.506-3.6732-7.0489zm135.46 68.987c4.5774-5.3019 13.909-19.527 17.575-26.791 6.5064-12.894 13.299-36.585 13.299-46.386v-2.8776h-48.885-48.885l-2.319 4.4738-2.319 4.4738 34.204 34.736c18.812 19.105 34.386 34.808 34.609 34.896 0.2229 0.088 1.4481-1.0479 2.7228-2.5242zm-137.57-97.97c2.4958-7.821 11.478-17.518 19.584-21.143 8.8068-3.9384 21.758-3.8674 30.148 0.16534 7.4503 3.5811 14.949 11.175 17.771 17.996 1.1863 2.8676 2.5633 6.0192 3.0599 7.0034 0.77637 1.5387 7.6999 1.8332 49.389 2.1012l48.486 0.31163v-5.277c0-19.922-11.348-49.927-26.483-70.027-27.56-36.599-74.551-57.338-119.14-52.581-31.838 3.396-57.213 15.022-79.591 36.467-24.09 23.085-38.04 51.385-41.379 83.949l-0.76595 7.4698 48.533-0.31169 48.533-0.31169 1.8545-5.8113z"/>
</svg>
