<?xml version="1.0" encoding="UTF-8" standalone="no"?>
<!-- Created with Inkscape (http://www.inkscape.org/) -->
<svg id="svg4196" xmlns:rdf="http://www.w3.org/1999/02/22-rdf-syntax-ns#" xmlns="http://www.w3.org/2000/svg" height="500" viewBox="0 0 500 500" width="500" version="1.1" xmlns:cc="http://creativecommons.org/ns#" xmlns:dc="http://purl.org/dc/elements/1.1/">
 <metadata id="metadata4202">
  <rdf:RDF>
   <cc:Work rdf:about="">
    <dc:format>image/svg+xml</dc:format>
    <dc:type rdf:resource="http://purl.org/dc/dcmitype/StillImage"/>
    <dc:title/>
   </cc:Work>
  </rdf:RDF>
 </metadata>
 <path id="path4206" fill="#fff" d="m234.96 440.91c-0.61-1.6-1.76-5.61-2.55-8.91-3.0269-12.643-4.5611-17.932-7.0753-24.395l-2.6003-6.6837-8.1162-1.8069c-16.8-3.74-35.15-12.09-52.61-23.96-11.325-7.6941-31.334-28.171-39.31-40.23-10.393-15.712-19.921-37.59-22.189-50.947-0.37128-2.1868-0.87809-4.7227-1.1263-5.6352-0.60752-2.2338-10.824-6.1992-25.126-9.7525-13.387-3.33-17.249-4.66-17.249-5.94 0-0.49573 4.8375-2.0968 10.75-3.558 17.714-4.3777 29.244-8.0198 29.247-9.2388 0.004-1.5239-11.871-5.6954-25.497-8.9567-11.377-2.7231-14.5-3.8658-14.5-5.3061 0-0.46256 5.7375-2.2726 12.75-4.0224s16.427-4.3223 20.92-5.7168l8.1703-2.5354 1.6253-7.657c6.0091-28.31 20.983-54.75 43.187-76.258 21.178-20.514 45.993-33.59 76.468-40.296 1.962-0.43169 3.1522-1.8111 4.7328-5.4854 1.9584-4.5523 5.4444-16.445 7.949-27.118 1.6469-7.0182 3.1642-10.433 4.1822-9.4128 0.50096 0.50206 2.0829 5.6378 3.5154 11.413 1.4325 5.775 3.4563 13.2 4.4973 16.5s2.4053 7.9889 3.0317 10.42l1.1389 4.4198 1.9215-4.2918c2.2025-4.9195 6.048-17.544 8.2388-27.048 2.0424-8.8602 3.5427-12.529 4.6647-11.406 0.50556 0.50556 2.2979 6.3163 3.9829 12.913 3.6838 14.421 7.4361 27.24 8.1964 28 0.30477 0.30476 5.0351 1.6391 10.512 2.9652 55.078 13.336 99.589 58.27 112.48 113.55l2.0554 8.8133 8.1396 2.5258c4.4768 1.3892 13.877 3.9574 20.89 5.7072 7.0125 1.7498 12.75 3.5868 12.75 4.0824 0 1.2591-3.911 2.6351-15.5 5.4535-12.872 3.1303-24.501 7.2838-24.497 8.7494 0.003 1.219 11.533 4.8611 29.247 9.2388 5.9125 1.4611 10.75 3.0622 10.75 3.558 0 1.2842-3.8621 2.6143-17.249 5.9402-17.034 4.2322-24.624 7.459-25.335 10.771-9.3156 43.409-34.246 78.579-72.439 102.19-14.424 8.9181-33.667 16.605-46.239 18.471-2.6193 0.38885-5.0885 1.2176-5.4872 1.8416-1.0156 1.5895-4.6575 13.97-8.274 28.128-1.685 6.5965-3.4774 12.407-3.9829 12.913-1.1221 1.1221-2.6223-2.5463-4.6647-11.406-2.1908-9.5036-6.0363-22.128-8.2388-27.048l-1.9215-4.2918-1.1389 4.4198c-0.62641 2.4309-1.9907 7.1198-3.0317 10.42-1.041 3.3-3.0648 10.725-4.4973 16.5s-3.0144 10.911-3.5154 11.413c-0.54852 0.54972-1.3544-0.24585-2.0258-2zm8.5237-45.157c2.3178-5.0626 2.3362-5.2823 0.52528-6.2515-1.0323-0.55246-5.4828-1.0045-9.8901-1.0045h-8.0132l2.9302 6.2617c1.6116 3.4439 3.9415 10.174 5.1775 14.955l2.2473 8.6932 2.3104-8.7035c1.2707-4.7869 3.3914-11.065 4.7126-13.95zm27.497-1.006 2.9151-6.25h-10.395-10.395l2.9302 6.2617c1.6116 3.4439 3.9415 10.174 5.1775 14.955l2.2473 8.6932 2.3024-8.7049c1.2663-4.7877 3.6141-11.517 5.2174-14.955zm39.622-15.198c15.955-7.5611 26.552-15.102 40.042-28.496 17.94-17.812 28.245-34.65 35.755-58.423 1.43-4.52 2.6-8.42 2.6-8.66 0-0.23771-1.6207 0.34066-3.6016 1.2853-3.52 1.6786-3.642 1.6676-5.3836-0.48325-1.6503-2.038-1.7509-4.6986-1.3609-35.984 0.47593-38.18 0.44737-38.036 6.8998-34.959l3.593 1.7134-0.68241-2.2688c-5.6434-18.763-12.735-33.819-22.133-46.993-7.7172-10.817-22.764-25.758-33.868-33.629-4.9298-3.4945-13.913-8.7414-19.963-11.66-10.69-5.1567-27.272-11.048-28.275-10.045-0.27302 0.27303 0.23955 1.6196 1.139 2.9924 2.034 3.1043 2.0437 4.0153 0.064 5.995-1.36 1.38-5.97 1.58-35.42 1.58-29.446 0-34.062-0.20474-35.429-1.5714-1.9797-1.9797-1.97-2.8907 0.064-5.995 0.8995-1.3728 1.3918-2.7397 1.094-3.0375-0.91219-0.91219-21.057 6.2436-29.434 10.455-17.914 9.0071-35.311 22.911-47.277 37.785-8.19 10.18-12.44 16.96-18.11 28.86-4.08 8.57-9.91 24.28-9.91 26.71 0 0.41886 1.5839 0.006 3.5197-0.91686 6.3945-3.0493 6.378-3.1343 6.8097 35.037 0.35154 31.081 0.24087 33.983-1.3719 35.974-1.7211 2.1255-1.824 2.1332-5.4407 0.40859l-3.6864-1.7579 0.67182 3.2742c1.1803 5.7524 10.223 27.454 14.468 34.723 17.408 29.807 46.023 53.047 78.862 64.049 11.069 3.7085 11.89 3.7537 9.7834 0.53821-2.0129-3.072-2.0196-3.9878-0.0436-5.9638 1.36-1.38 5.97-1.58 35.42-1.58 29.446 0 34.062 0.20474 35.429 1.5714 1.933 1.933 1.9426 3.3538 0.0396 5.8697-0.80751 1.0676-1.4682 2.2687-1.4682 2.669 0 1.3552 16.441-4.2434 26.602-9.0583zm-63.47-31.29c-0.55875-2.8875-1.5193-9.2768-2.1346-14.198-1.2183-9.7458-1.1238-9.4773-5.1208-14.552-1.5164-1.925-4.997-7.8232-7.7348-13.107l-4.9778-9.6071 4.2805-12.987c5.6063-17.009 6.2334-20.306 3.8569-20.277-0.98742 0.0122-8.5453 2.2095-16.795 4.8829l-15 4.8607-9.6817-4.9405c-5.325-2.7173-11.64-6.4361-14.034-8.264-3.9324-3.0026-5.5415-3.4858-16.667-5.0047-13.08-1.79-17.12-2.86-17.12-4.56 0-1.6963 4.0363-2.7708 17.117-4.5565 11.126-1.5189 12.735-2.0021 16.667-5.0047 2.3939-1.8279 8.7094-5.5548 14.034-8.2821l9.6817-4.9586 16.308 5.3472c8.9696 2.941 16.858 5.1362 17.531 4.8782 0.86719-0.33278-0.43912-5.4326-4.4968-17.556l-5.719-17.087 4.9952-9.6406c2.7474-5.3023 6.2358-11.216 7.7522-13.141 4.0444-5.1343 3.8834-4.62 5.6269-17.98 1.59-12.17 2.67-16.02 4.5-16.02 1.8321 0 2.9146 3.8518 4.5026 16.02 1.7435 13.36 1.5825 12.845 5.6269 17.98 1.5164 1.925 5.0036 7.8359 7.7494 13.135l4.9924 9.6353-5.5755 16.675c-3.474 10.39-5.2217 17.029-4.6369 17.613 0.58484 0.58484 7.1395-1.0864 17.39-4.4338l16.451-5.3724 9 4.4795c4.95 2.4637 11.274 6.1795 14.053 8.2573 4.714 3.5244 5.8779 3.8904 17.349 5.4565 13.06 1.78 17.1 2.85 17.1 4.55 0 1.7158-4.2377 2.8345-17.091 4.5119-11.096 1.448-12.546 1.8829-16.601 4.9797-2.4441 1.8662-8.8006 5.6235-14.126 8.3497l-9.6817 4.9566-16.813-5.5024c-9.2473-3.0263-17.069-5.2466-17.381-4.9341-0.31255 0.31255 1.937 8.0607 4.9989 17.218l5.5672 16.65-4.9924 9.6353c-2.7458 5.2994-6.2331 11.21-7.7494 13.135-4.0444 5.1343-3.8834 4.62-5.6269 17.98-0.88695 6.7965-2.0537 13.181-2.5928 14.189-1.8289 3.4174-3.723 2.0639-4.7839-3.4185zm10.51-37.193 6.7774-13.443-6.8514-6.307c-3.7682-3.4689-7.2363-6.457-7.7069-6.6404-0.48-0.19-0.86 8.4-0.86 19.08 0 16.823 0.3021 20.75 1.5961 20.75 0.14454 0 3.3126-6.0493 7.0402-13.443zm-10.85-15.41-0.29-7.94l-5.4666 5.0314-5.4666 5.0314 5.4666 10.582 5.4666 10.582 0.29121-7.67c0.16016-4.2185 0.16016-11.245 0-15.614zm7.5333-28.971 3.7304-3.8203-4.8686-4.1052-4.8686-4.1052-3.6484 3.6484-3.6484 3.6484 4.1977 4.2772c2.3087 2.3524 4.4627 4.2772 4.7866 4.2772 0.32386 0 2.2675-1.7191 4.3193-3.8203zm-46.571-7.9297 4.5059-5.25-15.88 0.014-15.88 0.014 10 5.4524c5.5 2.9988 10.618 5.355 11.374 5.236 0.75558-0.11906 3.4014-2.579 5.8797-5.4665zm102.51-0.23535 11.233-5.9854-17.349-0.0146-17.349-0.0146 5.1979 6c2.8588 3.3 5.6108 6 6.1155 6 0.50467 0 5.9726-2.6934 12.151-5.9854zm-67.499-5.4286 2.2671-1.9667-3.72-3.8096c-2.046-2.0953-4.1912-3.8096-4.7671-3.8096-0.57588 0.00002-2.3047 1.5763-3.8419 3.5028l-2.7949 3.5028 3.2139 3.9992c3.5534 4.4217 2.7791 4.5356 9.6429-1.4188zm24.113 1.414 3.2145-4-3.2145-4c-1.768-2.2-3.9478-4-4.8442-4-0.89633 0-3.325 1.7362-5.3971 3.8582l-3.7675 3.8582 4.7053 4.1418c2.5879 2.278 5.0166 4.1418 5.3972 4.1418 0.38051 0 2.1384-1.8 3.9063-4zm-68.864-3.9864 17.515-0.0137-6.721-7.204-6.7211-7.204-13.478 6.9066c-7.4129 3.7986-13.232 7.3046-12.931 7.7911 0.30065 0.48645 1.5083 0.6264 2.6838 0.31099 1.1754-0.3154 10.019-0.57961 19.653-0.58712zm125.93-0.75c-0.0343-0.4125-5.9088-3.6494-13.054-7.1931l-12.992-6.4431-6.7109 7.1931-6.7109 7.1931h19.765c10.871 0 19.737-0.3375 19.703-0.75zm-69.464-16.188-4.3749-4.4376-4.7993 4.4376l-4.81 4.44 4.4838 4.1234 4.4838 4.1234 4.6904-4.1234 4.6904-4.1234-4.3748-4.4376zm-4.7-48.31-0.28-10.25l-6.9468 13.673-6.9468 13.673 6.9468 6.4569 6.9468 6.4569 0.28498-9.8799c0.15674-5.434 0.15674-14.492 0-20.13zm9.2867 21.904 5.3576-4.8457-5.8271-11.404c-3.2-6.27-6-11.4-6.21-11.4-0.22 0-0.39 7.46-0.39 16.58 0 9.1208 0.38565 16.433 0.857 16.25 0.47135-0.18333 3.2679-2.5139 6.2146-5.1791zm-47.87 131.15c-1.877-1.877-1.4451-4.3714 1.9063-11.011 4.4414-8.7983 8.0741-14.009 9.0713-13.012 0.92 0.92-1.2455 13.735-3.1634 18.721-2.1853 5.6804-5.3133 7.8027-7.8142 5.3018zm71.436-0.98962c-1.88-2.91-4.64-13.55-4.64-17.88v-3.28l2.6012 2.4243c3.3865 3.1562 9.6022 15.487 9.2066 18.264-0.45527 3.1953-5.2143 3.5076-7.1716 0.4706zm38.21-28.56c-3.29-3.58-11.85-14.92-11.85-15.7 0-1.3081 13.191 6.7074 17.75 10.786 2.6522 2.3726 2.8272 3.9441 0.67857 6.0927-2.2276 2.2276-3.6927 1.9652-6.5806-1.1786zm-146.85-3.67c0-2.4981 4.0367-6.2419 11-10.202 4.5251-2.5734 12-5.5402 12-4.763 0 0.33171-1.8255 2.7834-4.0566 5.4483-8.35 9.98-18.94 15.3-18.94 9.52zm7.5-92.475c-12.281-4.8663-15.5-6.8624-15.5-9.6105 0-3.9115 3.9756-4.2891 9.7194-0.92303 7.338 4.3004 16.771 13.618 13.531 13.366-0.4125-0.0322-3.9-1.3067-7.75-2.8323zm128.5 2.4645c0-0.80316 17.498-15.176 19.322-15.872 2.7016-1.0298 5.6776 0.98719 5.6776 3.848 0 3.1034-3.554 5.3709-14.802 9.4439-8.07 2.94-10.2 3.47-10.2 2.59zm-27.95-23.838c-0.0274-0.42035 2.892-6.6351 6.4876-13.811 6.4864-12.944 6.5626-13.044 9.75-12.736 2.754 0.26623 3.2546 0.73888 3.5073 3.3114 0.25524 2.5983-1.0457 4.4089-9.7001 13.5-5.4972 5.7746-10.017 10.155-10.045 9.7349zm-73.708-7.0102c-10.528-11.057-12.843-16.317-8.2588-18.77 2.9599-1.5841 5.2626 0.80398 10.167 10.545 7.5848 15.063 7.0005 17.582-1.9085 8.2256zm-97.16 79.741c0-4.7767-0.40279-9.0876-0.89509-9.5799-0.52679-0.52679-3.1359 0.19108-6.3409 1.7446-2.9952 1.4518-9.3716 3.5824-14.17 4.7345l-8.724 2.0948 8.7874 2.1555c4.8331 1.1855 11.459 3.4908 14.724 5.1227 3.2651 1.632 6.09 2.8424 6.2775 2.6899 0.1875-0.15252 0.34091-4.1855 0.34091-8.9622zm298.84 1.1832 8.9245-2.1892-8.7748-2.0962c-4.8262-1.1529-11.22-3.2663-14.208-4.6964-2.9882-1.4301-5.8157-2.2177-6.2832-1.7501-0.66862 0.66862-1.0812 10.584-0.73456 17.655 0.0289 0.59017 2.7749-0.23355 6.1021-1.8305 3.3273-1.5969 10.066-3.8886 14.974-5.0927zm-299.02-29.08v-10.449l-6.2285 3.0903c-3.4257 1.6997-10.164 4.0304-14.974 5.1794l-8.7455 2.0892 8.7874 2.1555c4.8331 1.1855 11.459 3.5195 14.724 5.1865 3.2651 1.667 6.0491 3.0684 6.1866 3.1141s0.25-4.619 0.25-10.366zm299.02 2.099 8.9245-2.1892-8.7455-2.0892c-4.81-1.149-11.548-3.4798-14.974-5.1794l-6.22-3.09v10.272 10.272l6.0496-2.9035c3.3273-1.5969 10.066-3.8886 14.974-5.0927zm-166.01-127.65c1.8092-0.96826 1.7886-1.1974-0.57252-6.3547-1.3472-2.9426-3.4499-9.2203-4.6727-13.95l-2.2233-8.6003-2.3024 8.7049c-1.2663 4.7877-3.6141 11.517-5.2174 14.955l-2.9151 6.25h8.0132c4.4073 0 8.8578-0.45202 9.8901-1.0045zm26.956-5.2572c-1.6116-3.4439-3.9415-10.174-5.1775-14.955l-2.2473-8.6933-2.3024 8.7049c-1.2663 4.7877-3.6141 11.517-5.2174 14.955l-2.9151 6.25h10.395 10.395l-2.9302-6.2617z"/>
</svg>
