<?xml version="1.0" encoding="UTF-8" standalone="no"?>
<!-- Created with Inkscape (http://www.inkscape.org/) -->
<svg id="svg4148" xmlns:rdf="http://www.w3.org/1999/02/22-rdf-syntax-ns#" xmlns="http://www.w3.org/2000/svg" height="500" viewBox="0 0 500 500" width="500" version="1.1" xmlns:cc="http://creativecommons.org/ns#" xmlns:dc="http://purl.org/dc/elements/1.1/">
 <metadata id="metadata4154">
  <rdf:RDF>
   <cc:Work rdf:about="">
    <dc:format>image/svg+xml</dc:format>
    <dc:type rdf:resource="http://purl.org/dc/dcmitype/StillImage"/>
    <dc:title/>
   </cc:Work>
  </rdf:RDF>
 </metadata>
 <path id="path4698" fill="#fff" d="m250.73 470.25c-7.6346-6.3764-16.008-16.238-72.813-85.75-49.094-60.077-54.83-67.313-55.51-70.021-0.88705-3.5343 4.9369-11.844 16.806-23.979 5.3794-5.5 9.7824-10.124 9.7845-10.276 0.006-0.44812-22.987-28.406-26.501-32.224-1.772-1.925-3.8707-4.85-4.664-6.5-0.79322-1.65-2.2018-4.154-3.1303-5.5645-1.6296-2.4757-1.5898-2.7181 1.1506-7 1.5613-2.4395 12.773-15.341 24.915-28.671 12.142-13.329 23.042-25.592 24.223-27.25 1.5399-2.1626 2.9639-3.0149 5.037-3.0149 3.5692 0 7.9981 4.4338 29.614 29.647l15.558 18.147 2.8945-1.6466c1.592-0.90563 2.8974-1.9343 2.9008-2.2859 0.003-0.35163-3.356-4.5639-7.4654-9.3605-4.1095-4.7967-10.674-12.964-14.589-18.149-3.9145-5.1852-11.046-14.023-15.849-19.639-10.35-12.13-15.09-18.88-15.09-21.52 0-3.0052 3.5435-7.6402 29.594-38.709 38.923-46.422 54.72-64.613 57.564-66.287 2.4199-1.4246 2.8792-1.4193 5.1352 0.05885 3.8599 2.5291 82.551 95.634 85.303 100.93 0.77208 1.4852 1.4038 3.5556 1.4038 4.6009 0 1.9905-8.0959 13.257-11.999 16.699-1.2476 1.1-5.5024 6.05-9.4551 11-3.9528 4.95-9.8208 11.845-13.04 15.321-7.56 8.17-16.5 21.03-16.5 23.75 0 1.1669 0.81881 2.8626 1.8196 3.7683 1.7253 1.5614 2.6293 0.70161 17.449-16.595 22.12-25.81 26.03-29.74 29.64-29.74 2.1445 0 3.5428 0.82648 5.1012 3.0149 1.1808 1.6582 12.081 13.921 24.223 27.25s23.353 26.231 24.915 28.671c2.7404 4.2819 2.7802 4.5243 1.1506 7-0.92844 1.4105-2.3371 3.9145-3.1303 5.5645-0.79322 1.65-2.892 4.575-4.664 6.5-3.5141 3.8177-26.507 31.776-26.501 32.224 0.002 0.15189 4.405 4.7762 9.7845 10.276 11.812 12.076 17.692 20.449 16.816 23.942-0.6841 2.7257-7.1134 10.825-57.997 73.058-56.196 68.731-62.674 76.352-70.334 82.75-2.4694 2.0625-5.5169 3.75-6.7721 3.75s-4.3027-1.6875-6.7721-3.75zm9.424-13c2.9304-4.7468 28.739-36.873 77.546-96.529l38.272-46.779-5.9026-7.2213c-3.2464-3.9717-8.6025-9.8021-11.902-12.956-6.8104-6.5101-9.1645-11.496-6.8186-14.441 0.79886-1.003 7.0248-8.7986 13.836-17.324 6.8107-8.525 14.453-18.21 16.983-21.521l4.6003-6.0214-16.133-17.539c-8.8729-9.6465-18.873-20.536-22.222-24.198l-6.0896-6.659-19.009 21.22c-10.455 11.671-20.227 21.871-21.716 22.668-2.4826 1.3284-3.085 1.2454-7.2565-1-5.3338-2.8711-13.164-13.056-13.508-17.571-0.29641-3.8901 3.7467-9.6709 15.428-22.059 11.83-12.56 14.68-16.11 25.09-31.32l8.5567-12.5-2.5029-2.3318c-2.5602-2.3852-38.386-45.139-57.717-68.878-5.9162-7.2653-11.173-13.467-11.682-13.782-0.50898-0.31457-5.7829 5.3541-11.72 12.597-23.359 28.498-57.575 69.303-59.372 70.807-1.8251 1.5272-1.5731 2.0579 6.6889 14.087 10.42 15.171 13.236 18.68 25.284 31.5 10.957 11.659 15.109 17.697 15.094 21.946-0.0145 4.2203-7.6829 14.23-13.377 17.461-4.0668 2.3076-4.671 2.4004-7.1137 1.0931-1.4682-0.78574-9.9435-9.5255-18.834-19.422-8.9-9.9-17.52-19.46-19.17-21.26l-3-3.265-16.5 18.072c-9.075 9.9396-19.16 20.993-22.412 24.564-4.0833 4.4838-5.5342 6.725-4.6911 7.2461 0.67135 0.41491 2.8816 3.028 4.9117 5.8069s9.2458 11.961 16.035 20.405c6.7891 8.4437 12.977 16.145 13.75 17.114 0.77341 0.96879 1.4062 2.4835 1.4062 3.366 0 2.1342-5.7332 9.7922-11.509 15.373-2.5615 2.475-6.8821 7.0501-9.6013 10.167l-4.9439 5.6668 38.478 47.022c47.947 58.594 74.472 91.622 77.447 96.436 1.2607 2.0398 2.4437 3.7087 2.629 3.7087 0.18528 0 1.3786-1.6875 2.6519-3.75zm-5.15-63.13c-4.0362-1.0012-5.3224-2.1926-11.466-10.62-3.2074-4.4-9.7148-12.5-14.461-18-10.865-12.591-19.639-23.284-29.413-35.846-8.7673-11.269-9.4891-14.046-4.7975-18.46 1.5746-1.4815 5.6854-5.8436 9.1351-9.6936 8.1162-9.0581 43.186-41.705 48.923-45.542 2.4318-1.6267 5.1508-2.9577 6.0422-2.9577 0.89139 0 7.6957 5.7375 15.121 12.75 40.299 38.061 48.916 47.096 48.916 51.296 0 3.5159-11.953 19.096-38 49.532-5.225 6.1053-11.75 14.303-14.5 18.218-6.0386 8.5953-9.66 10.774-15.5 9.3254zm10.72-32.87c4.4034-5.3625 12.161-14.475 17.24-20.25 5.0786-5.775 11.24-13.087 13.693-16.249l4.459-5.7488-3.3075-3.9842c-3.64-4.39-39.3-38.02-40.31-38.02-1.0288 0-33.564 30.637-38.805 36.541l-4.8198 5.4295 4.4636 5.7648c2.455 3.1706 9.5912 11.634 15.858 18.806 6.2671 7.1729 14.016 16.285 17.219 20.25 3.2033 3.9646 5.9349 7.2084 6.0702 7.2084 0.13533 0 3.8488-4.3875 8.2522-9.75zm-95.07-101.08c-0.91-1-1.65-2.26-1.65-2.78 0-0.52391-2.7282-3.6385-6.0626-6.9213s-7.5938-8.0855-9.4653-10.673l-3.4027-4.7041 3.8576-4.7959c2.1217-2.6378 7.1773-8.0566 11.235-12.042l7.3772-7.2459 5.0773 3.4193c5.52 3.7174 15.671 14.359 18.053 18.925 2.2985 4.4061 0.41346 7.4181-11.672 18.649-5.91 5.5-10.96 10-11.22 10-0.2557 0-1.2097-0.82293-2.1199-1.8287zm10.521-25.943c-2.1862-2.6007-5.0366-5.7178-6.3344-6.9267l-2.3596-2.1981-4.7328 5.3681-4.7328 5.3681 6.742 6.0769 6.742 6.077 4.3252-4.5183 4.3252-4.5183-3.9748-4.7286zm149.16 17.019c-6.1421-5.9112-11.453-11.738-11.802-12.948-0.35179-1.2205 0.0163-3.4466 0.82679-5 2.3589-4.5211 12.534-15.174 18.026-18.873l5.0773-3.4193 7.3772 7.2459c4.0574 3.9853 9.1131 9.4041 11.235 12.042l3.8576 4.7959-3.4027 4.7041c-1.8715 2.5872-6.1309 7.39-9.4653 10.673-3.3344 3.2828-6.0626 6.4755-6.0626 7.095 0 1.0433-3.124 4.4393-4.0787 4.4339-0.23169-0.001-5.4466-4.8388-11.589-10.75zm17.855-12.125 3.6875-3.4062-4.6783-5.3062-4.6783-5.3062-2.3596 2.1981c-1.2978 1.209-4.1408 4.317-6.3178 6.9069l-3.9582 4.7088 4.2178 4.5758 4.2178 4.5758 3.0908-2.7702c1.6999-1.5236 4.7502-4.303 6.7782-6.1764zm-95.75-48.52c-9.22-6.21-33.43-37.69-33.43-43.47 0-3.1442 4.6744-10.425 18.468-28.765 11.38-15.13 17.98-22.36 20.43-22.36 1.9431 0 10.931 8.9298 13.112 13.026 0.7241 1.3605 4.5539 6.7537 8.5106 11.985 11.46 15.15 16.48 23.11 16.48 26.11 0 5.4954-23.714 36.819-33.1 43.722-2.3618 1.7368-4.549 3.1579-4.8604 3.1579-0.31149 0-2.8366-1.5289-5.6114-3.3976zm21.126-32.162c4.64-6.08 8.44-11.62 8.44-12.31 0-0.68803-3.7125-5.7864-8.25-11.33-4.5375-5.5434-9.958-12.266-12.046-14.939-2.0875-2.6733-3.959-4.8605-4.1587-4.8605-0.19976 0-2.6011 2.8125-5.3362 6.25-2.7352 3.4375-8.1763 10.175-12.091 14.972-3.915 4.797-7.1182 9.2569-7.1182 9.911 0 1.3926 8.5773 13.034 17.876 24.262l6.5384 7.8951 3.8468-4.3951c2.1157-2.4173 7.6474-9.3719 12.293-15.455z"/>
</svg>
