<?xml version="1.0" encoding="UTF-8" standalone="no"?>
<!-- Created with Inkscape (http://www.inkscape.org/) -->
<svg id="svg4136" xmlns:rdf="http://www.w3.org/1999/02/22-rdf-syntax-ns#" xmlns="http://www.w3.org/2000/svg" height="640" viewBox="0 0 640 640" width="640" version="1.1" xmlns:cc="http://creativecommons.org/ns#" xmlns:dc="http://purl.org/dc/elements/1.1/">
 <metadata id="metadata4142">
  <rdf:RDF>
   <cc:Work rdf:about="">
    <dc:format>image/svg+xml</dc:format>
    <dc:type rdf:resource="http://purl.org/dc/dcmitype/StillImage"/>
    <dc:title/>
   </cc:Work>
  </rdf:RDF>
 </metadata>
 <path id="path4146" fill="#fff" d="m357.16 568.08c-5.1562-1.051-9.8234-2.3523-10.371-2.8917-0.54801-0.5394 1.9728-2.2147 5.6019-3.7228 25.594-10.636 49.743-35.028 59.543-60.14 11.867-30.409 9.4947-70.844-6.6021-112.55-2.2656-5.8697-8.6336-20.495-14.151-32.5-17.127-37.266-22.356-51.436-27.429-74.328-3.4497-15.567-3.0533-54.308 0.73498-71.823 5.0119-23.173 14.91-50.787 26.634-74.307 6.2037-12.445 20.071-37.13 20.575-36.626 0.20307 0.20308-1.6314 6.5314-4.0766 14.063-18.448 56.821-16.467 115.7 5.4899 163.2 2.7344 5.9153 11.337 20.822 19.117 33.125 57.049 90.215 71.184 120.67 71.184 153.37 0 28.412-15.662 60.342-38.647 78.788-14.882 11.943-28.957 19.212-47.775 24.674-12.382 3.5938-45.813 4.5271-59.828 1.6703zm-113.12-5.5742c-20.4-2.7572-42.123-11.125-60.327-23.237-12.973-8.6316-31.236-26.625-39.981-39.39-9.4799-13.838-9.4902-14.425-0.16315-9.3008 10.256 5.634 23.874 10.748 28.622 10.748h3.7194l-4.326-6.0215c-10.166-14.151-17.277-34.578-18.87-54.211-1.5336-18.902 3.684-45.861 12.123-62.638 4.6994-9.3428 16.268-26.449 24.264-35.879 3.2063-3.7812 8.4415-9.9555 11.634-13.72 3.1922-3.765 10.309-11.921 15.815-18.125 41.321-46.556 60.767-77.625 71.214-113.78 5.495-19.017 6.802-30.333 6.3523-55-0.4342-23.816-1.8389-33.809-8.083-57.5-1.9932-7.5625-3.4347-13.948-3.2034-14.189 0.73987-0.7723 7.589 13.738 13.483 28.564 16.724 42.071 24.699 83.021 24.709 126.88 0.0112 49.313-8.8885 87.098-31.944 135.62-14.685 30.91-18.163 43.32-18.163 64.819 0 20.146 5.2913 35.352 16.383 47.08 19.309 20.417 46.982 20.587 71.341 0.43929 3.2171-2.6609 6.1702-4.8381 6.5625-4.8381 1.5212 0 0.58176 11.1-1.7694 20.907-7.1556 29.847-26.374 54.013-51.892 65.253-15.608 6.8747-46.671 10.335-67.5 7.5202z"/>
</svg>
