<?xml version="1.0" encoding="UTF-8" standalone="no"?>
<!-- Created with Inkscape (http://www.inkscape.org/) -->
<svg id="svg4147" xmlns:rdf="http://www.w3.org/1999/02/22-rdf-syntax-ns#" xmlns="http://www.w3.org/2000/svg" height="160" viewBox="0 0 160 160" width="160" version="1.1" xmlns:cc="http://creativecommons.org/ns#" xmlns:dc="http://purl.org/dc/elements/1.1/">
 <metadata id="metadata4153">
  <rdf:RDF>
   <cc:Work rdf:about="">
    <dc:format>image/svg+xml</dc:format>
    <dc:type rdf:resource="http://purl.org/dc/dcmitype/StillImage"/>
    <dc:title/>
   </cc:Work>
  </rdf:RDF>
 </metadata>
 <path id="path4697" fill="#fff" d="m66.875 148.81c-25.968-5.61-45.176-23.01-53.891-48.81-3.2218-9.539-3.2218-30.461 0-40 7.897-23.384 23.632-39.119 47.016-47.016 9.5387-3.2215 30.461-3.2215 40 0 11.742 3.9657 21.393 9.7978 29.306 17.711 7.91 7.912 13.74 17.563 17.71 29.305 3.2215 9.5387 3.2215 30.461 0 40-10.051 29.762-33.869 48.188-63.891 49.428-6.1875 0.25562-13.5-0.0213-16.25-0.61536zm26.586-10.697c11.908-2.8076 20.034-7.5592 29.664-17.347l8.75-8.8934-25.938-0.33786c-14.266-0.18582-37.609-0.18582-51.875 0l-25.938 0.33786 8.75 8.8934c16.144 16.408 35.457 22.329 56.586 17.347zm-40.958-73.832c13.87-23.773 24.915-43.527 24.542-43.899-1.255-1.255-18.145 3.253-24.774 6.612-9.375 4.751-21.504 17.334-26.003 26.977-5.279 11.317-7.17 23.737-5.287 34.72 1.304 7.606 4.832 18.812 5.921 18.812 0.21 0 11.73-19.45 25.601-43.222zm35.477 40.432c10.939-3.27 19.66-16.914 17.87-27.961-2.51-15.421-17.449-25.74-31.788-21.947-19.998 5.29-26.674 28.902-12.248 43.328 7.4987 7.4987 15.97 9.6299 26.166 6.5832zm50.08-11.042c1.0678-4.695 1.9332-10.957 1.9231-13.915-0.0262-7.642-3.1586-19.956-7.0092-27.555-4.2431-8.3734-16.834-20.946-25.243-25.208-6.6118-3.3505-23.518-7.8685-24.768-6.6189-0.36861 0.36862 10.727 19.908 24.656 43.421 28.216 47.63 26.734 46.175 30.441 29.874z"/>
</svg>
