<?xml version="1.0" encoding="UTF-8" standalone="no"?>
<!-- Created with Inkscape (http://www.inkscape.org/) -->
<svg id="svg4136" xmlns:rdf="http://www.w3.org/1999/02/22-rdf-syntax-ns#" xmlns="http://www.w3.org/2000/svg" height="500" viewBox="0 0 500 500" width="500" version="1.1" xmlns:cc="http://creativecommons.org/ns#" xmlns:dc="http://purl.org/dc/elements/1.1/">
 <metadata id="metadata4142">
  <rdf:RDF>
   <cc:Work rdf:about="">
    <dc:format>image/svg+xml</dc:format>
    <dc:type rdf:resource="http://purl.org/dc/dcmitype/StillImage"/>
    <dc:title/>
   </cc:Work>
  </rdf:RDF>
 </metadata>
 <path id="path4146" fill="#fff" d="m227.5 463.91c-14.131-1.4513-29.89-4.7372-43.5-9.0702-9.1716-2.9199-12.039-7.0759-5.75-8.3326 1.7875-0.35716 6.0918-1.5644 9.5652-2.6827 3.4733-1.1183 25.073-6.8659 48-12.772 38.072-9.8084 41.713-10.928 42.007-12.913 0.20332-1.374 1.5834-2.7013 3.75-3.6065 3.7005-1.5462 3.7872-1.8242 3.4425-11.034-0.35097-9.3769-3.41-13.719-10.514-14.926-2.2-0.37365-6.3702-1.6416-9.2671-2.8178-5.9833-2.4292-5.0751-0.42993-10.793-23.756-5.4285-22.146-29.449-114.49-48.121-185-11.014-41.588-11.3-42.92-10.77-50.127 0.57417-7.8112 0.95407-9.0349 4.6899-15.106 4.5857-7.4527 5.9077-12.822 4.4213-17.956-2.1285-7.3516-1.8679-7.3869-55.131 7.4638-25.866 7.2118-49.329 13.288-52.14 13.503-4.5998 0.35204-5.3249 0.11918-7.25-2.3282-1.177-1.48-2.14-3.1-2.14-3.59 0-0.49069 3.9375-4.8185 8.75-9.6173 56.34-56.18 137.38-76.849 213.56-54.465 9.7199 2.8562 11.799 4.7374 8.9288 8.0803-1.7471 2.0351-19.223 7.2377-74.735 22.249-12.65 3.4206-23.338 6.5117-23.751 6.869-0.41331 0.3573 0.23419 3.5515 1.4389 7.0982s3.7928 12.074 5.7515 18.949c3.1783 11.156 3.8154 12.536 5.9262 12.835 1.6114 0.228 3.4437-0.71079 5.75-2.9462 2.934-2.8437 3.3849-3.9295 3.3849-8.1504 0-2.6783 0.45828-5.7259 1.0184-6.7725 2.3072-4.311 15.69-9.4125 30.162-11.498 7.1357-1.0281 18.746 1.3474 21.877 4.476 3.4616 3.4592 8.965 22.312 8.9197 30.556-0.0181 3.3-0.0282 7.125-0.0224 8.5 0.006 1.375-0.31921 3.0081-0.72226 3.6292-0.82 1.25-38.15 11.37-41.96 11.37-3.1094 0-5.8803-1.485-10.532-5.6443-4.8721-4.3564-10.277-4.7232-11.769-0.79866-0.9606 2.5266 0.82526 14.166 3.0858 20.112 0.5202 1.3682 2.3203 7.932 4.0002 14.586 3.4141 13.523 4.128 15.243 6.9586 16.757 3.29 1.7607 5.6092-0.44559 9.9583-9.4732 2.4108-5.0044 5.2083-9.2499 6.8789-10.439 5.2147-3.7132 35.655-12.606 38.895-11.363 3.2234 1.237 6.9894 6.0892 7.6956 9.9155 0.39069 2.1165 2.6532 10.148 5.0277 17.848 4.4958 14.579 6.8765 23.164 30.919 111.5 16.022 58.867 15.994 58.693 10.196 63.784-3.7921 3.3295-17.552 10.576-23.093 12.162-2.2 0.62965-8.2199 1.5682-13.378 2.0856-7.9179 0.79434-9.9073 0.68945-12.78-0.67381-3.1546-1.497-4.2412-2.59-9.2705-9.3257-1.584-2.1214-2.069-2.2796-3.4571-1.1276-2.4857 2.0629-1.9656 8.4559 1.2958 15.928 1.6007 3.6672 4.3571 10.83 6.1254 15.918 1.7682 5.0875 3.5183 9.25 3.8891 9.25 0.37076 0 23.357-5.8327 51.08-12.962 27.723-7.1289 50.595-12.772 50.827-12.54 0.72694 0.72695-7.2175 9.6189-17.51 19.599-44.56 43.2-107.99 65.16-169.83 58.81zm-103.72-43.17c-19.12-10.82-42.532-35.82-58.226-62.17-14.36-24.12-25.773-56.26-29.674-83.57-1.7447-12.214-1.4421-41.204 0.56891-54.5 4.0803-26.977 13.667-55.966 19.809-59.9 3.8816-2.4865 9.543-2.419 12.609 0.15041 1.6624 1.3932 7.7104 22.748 29.666 104.75 15.168 56.65 29.849 111.32 32.624 121.5 5.7846 21.21 6.9964 30.592 4.4529 34.473-2.1993 3.3565-4.8969 3.1889-11.832-0.73529zm75.006-19.8c-3.7069-2.1607-5.4261-7.6601-27.647-88.438-6.052-22-18.458-67.104-27.57-100.23-9.12-33.13-16.57-61.97-16.57-64.1 0-8.8484 10.965-10.56 14.19-2.2146 1.0647 2.755 48.518 175.16 59.86 217.47 7.3237 27.326 8.2598 34.073 5.1212 36.914-2.0556 1.8603-4.8321 2.0833-7.3883 0.59335zm230.42-51.508c-4.2102-2.9489-7.0979-11.159-15.138-43.04-4.43-17.54-12.75-48.99-18.49-69.89-34.53-125.59-41.58-151.78-41.58-154.54 0-5.0992 3.7487-10.685 8.2389-12.277 4.91-1.735 37.11 25.528 52.34 44.317 29.583 36.495 44.699 74.99 47.316 120.5 2.3341 40.579-3.1603 73.397-17.445 104.2-3.754 8.0944-4.7114 9.3841-7.9805 10.75-4.5654 1.9075-4.5179 1.9076-7.2664-0.0175z"/>
</svg>
