<?xml version="1.0" encoding="UTF-8" standalone="no"?>
<!-- Created with Inkscape (http://www.inkscape.org/) -->
<svg id="svg4699" xmlns:rdf="http://www.w3.org/1999/02/22-rdf-syntax-ns#" xmlns="http://www.w3.org/2000/svg" height="240" viewBox="0 0 240 240" width="240" version="1.1" xmlns:cc="http://creativecommons.org/ns#" xmlns:dc="http://purl.org/dc/elements/1.1/">
 <metadata id="metadata4705">
  <rdf:RDF>
   <cc:Work rdf:about="">
    <dc:format>image/svg+xml</dc:format>
    <dc:type rdf:resource="http://purl.org/dc/dcmitype/StillImage"/>
    <dc:title/>
   </cc:Work>
  </rdf:RDF>
 </metadata>
 <path id="path5249" fill="#fff" d="m107.34 234.63c-25.593-2.9-49.064-13.79-67.41-31.29-23.847-22.74-35.955-50.84-35.955-83.45 0-32.612 12.107-60.715 35.954-83.454 44.652-42.577 115.49-42.577 160.14 0 23.847 22.739 35.954 50.842 35.954 83.454s-12.107 60.715-35.954 83.454c-18.813 17.939-41.745 28.396-68.821 31.381-9.5746 1.0557-13.907 1.0386-23.906-0.0941zm30.58-5.0846c37.257-6.4299 67.238-28.914 83.302-62.472 20.105-41.998 11.536-91.751-21.536-125.05-43.998-44.302-115.38-44.302-159.38 0-43.004 43.301-43.004 112.43 0 155.73 25.511 25.688 62.733 37.81 97.614 31.79zm-28.237-7.0464c-4.6406-0.38912-11.28-1.3744-14.754-2.1896-7.3122-1.7158-21.34-6.9522-21.34-7.966 0-0.3796 0.53677-1.4242 1.1928-2.3214 1.1196-1.5312 1.5179-1.4824 6.4904 0.79402 9.7885 4.4813 22.514 7.1388 36.379 7.597 11.721 0.38736 12.678 0.55551 12.956 2.2751 0.26808 1.6616-0.24138 1.8568-4.8452 1.8568-2.8296 0-5.7066 0.14887-6.3933 0.33081-0.68671 0.18195-5.0454 0.0125-9.686-0.37667zm30.825-3.1905c-0.70773-1.8443 0.33805-3.3262 2.3474-3.3262 2.628 0 14.079-4.1369 20.734-7.4908 7.6409-3.8506 13.072-7.4808 19.808-13.241 5.0475-4.3158 5.3438-4.4377 6.8207-2.8057 1.4568 1.6097 1.2646 1.9423-3.4017 5.8889-10.366 8.7672-21.438 14.891-35.354 19.553-9.5091 3.1858-10.24 3.2807-10.954 1.4212zm-33.558-9.9886c-30.469-4.4439-56.995-23.648-69.873-50.585-6.2225-13.016-7.8235-20.576-7.9283-37.44-0.08366-13.463 1.3897-26.543 3.1097-27.606 0.35175-0.21739 1.1415-0.08501 1.755 0.29416 0.85113 0.52602 0.76318 2.3444-0.3711 7.6725-1.1203 5.2625-1.3714 10.217-1.019 20.108 0.85995 24.139 7.9128 41.162 24.027 57.995 7.6828 8.0253 15.266 13.499 25.444 18.365 13.5 6.454 20.499 7.8963 38.628 7.96 13.455 0.0473 15.688 0.2584 15.456 1.4615-0.49251 2.5613-16.975 3.5622-29.229 1.775zm-46.673-4.5196c-17.643-11.8-32.504-31.642-39.656-52.945-2.8933-8.6191-2.8949-8.9983-0.03722-8.9983 1.9298 0 2.4746 0.65227 3.3276 3.9844 1.9821 7.7423 6.7567 18.446 11.465 25.702 5.7145 8.807 20.487 23.749 28.595 28.923 3.2181 2.0536 5.8549 3.9697 5.8594 4.2578 0.0045 0.28817-0.53838 1.2714-1.2064 2.185-1.1265 1.5406-1.732 1.315-8.3475-3.1097zm79.455 2.9503c-1.5916-1.5917 0.16997-3.092 5.8098-4.948 23.714-7.8043 42.043-24.189 52.774-47.178 1.9542-4.1863 4.1968-10.097 4.9836-13.135 1.5128-5.8418 2.6617-7.7078 4.1713-6.7749 1.1301 0.69846 0.0738 5.7362-3.1188 14.874-9.2417 26.452-32.236 48.04-60.167 56.49-2.1641 0.65466-4.168 0.95704-4.4531 0.67196zm-31.896-8.6854c-33.378-5.24-59.887-31.35-65.717-64.74-6.935-39.708 18.377-78.402 58.257-89.061 10.511-2.8091 28.757-2.807 39.324 0.0046 27.496 7.3157 49.462 28.99 56.934 56.18 2.8774 10.471 2.8866 29.672 0.0191 39.686-3.9331 13.736-9.9035 24.328-19.401 34.42-9.2747 9.8545-24.725 18.771-38.3 22.104-7.7319 1.8982-23.46 2.6126-31.098 1.4124zm30.909-7.0424c14.141-3.8312 28.956-13.254 37.942-24.132 5.633-6.8189 12.474-20.15 14.771-28.783 2.2233-8.3579 2.2233-27.267 0-35.625-6.13-23.116-24.62-43.045-47.13-50.804-15.97-5.503-31.96-5.594-47.93-0.273-11.112 3.702-19.359 9.018-28.921 18.641-7.1132 7.1582-9.1815 9.9668-12.842 17.439-2.4 4.8984-5.1084 11.648-6.0185 15-2.2662 8.3453-2.2983 27.213-0.06061 35.625 2.2965 8.6334 9.1376 21.964 14.771 28.783 10.909 13.206 28.516 23.047 46.38 25.923 5.2928 0.85228 23.432-0.2656 29.062-1.791zm-31.406-4.5845c-23.793-5.12-42.358-20.55-50.641-42.11-14.241-37.06 7.097-78.548 45.691-88.852 10.01-2.6721 25.183-2.6883 35.104-0.03763 13.602 3.6342 26.131 11.627 34.911 22.272 22.98 27.86 19.9 68.227-7.0707 92.656-6.4306 5.8245-19.307 12.793-27.975 15.139-7.5239 2.0366-22.67 2.5067-30 0.93106zm30.938-9.8853c29.336-9.7322 46.779-40.375 39.501-69.39-2.99-11.993-6.91-18.967-15.57-27.747-8.74-8.85-18.8-14.425-30.47-16.885-18.1-3.814-38.341 1.974-52.185 14.925-7.596 7.105-12.197 14.159-15.686 24.047-2.4976 7.0801-2.8307 9.262-2.8687 18.791-0.04797 12.041 1.7851 19.397 7.2426 29.062 4.051 7.1747 14.056 17.313 21.308 21.591 5.5101 3.2508 14.445 6.6409 20.625 7.8262 5.5994 1.0738 22.127-0.23176 28.125-2.2218zm-22.969-7.1574c-1.0312-0.20308-4.1953-0.83113-7.0312-1.3957-12-2.3889-25.676-12.741-31.591-23.914-4.2949-8.1118-5.9085-14.609-5.9085-23.791 0-14.257 4.7509-25.372 14.934-34.941 7.1391-6.7085 13.334-10.325 21.192-12.372 7.0632-1.8397 19.118-1.8405 26.178-0.0016 16.256 4.2342 29.767 17.546 34.637 34.125 1.8404 6.2657 1.9378 19.414 0.19242 25.969-1.9984 7.5051-7.1059 16.229-12.904 22.04-9.9558 9.9787-28.207 16.544-39.699 14.281zm79.275 17.061c-0.89722-1.0811 0.0297-2.8378 4.8232-9.1406 14.463-19.017 21.192-43.508 18.501-67.339-1.6305-14.443-1.6279-14.525 0.45807-14.525 2.2454 0 2.9604 2.4768 4.398 15.234 1.9712 17.494-1.1939 35.115-9.3881 52.266-4.1259 8.6357-15.17 24.844-16.929 24.844-0.41405 0-1.2526-0.60223-1.8635-1.3383zm-177.67-51.13c-0.30885-0.49971-0.81817-5.121-1.1318-10.27-1.2862-21.112 5.1915-45.27 16.699-62.278 10.969-16.212 27.362-30.136 44.295-37.624 5.1646-2.284 5.2464-2.29 6.2301-0.4519 0.85366 1.5951 0.62118 2.0041-1.6191 2.849-5.055 1.9063-16.756 9.292-24.297 15.336-25.556 20.484-38.619 50.759-36.332 84.207 0.60416 8.8382 0.5602 9.1406-1.3289 9.1406-1.0745 0-2.2064-0.40886-2.5152-0.90859zm188.64-19.48c-0.67754-17.665-5.164-32.201-13.823-44.787-2.6289-3.821-2.8413-4.5551-1.6598-5.7366s1.7841-0.70839 4.7094 3.6974c4.9312 7.4268 8.6287 15.159 11.296 23.623 4.5942 14.577 5.5591 36.094 1.6187 36.094-1.4669 0-1.7008-1.4081-2.1412-12.891zm-171.31-28.262c0-5.1901 15.114-29.158 18.387-29.158 2.7958 0 2.0666 2.2352-2.3433 7.183-4.1943 4.7059-9.4886 13.881-12.22 21.176-1.0956 2.9265-3.8241 3.4962-3.8241 0.79842zm178.54-3.142c-9.0863-27.742-36.21-52.5-66.735-60.916-6.14-1.6929-7.7287-2.4889-7.7344-3.8754-0.007-1.502 0.4823-1.6588 3.5085-1.1264 27.336 4.8099 58.627 29.425 71.447 56.204 2.0022 4.1825 4.0614 9.1867 4.5759 11.12 0.88532 3.3271 0.81789 3.5156-1.2574 3.5156-1.8156 0-2.4702-0.84667-3.8049-4.9219zm-34.718-29.571c-3.9473-3.7341-9.5607-7.8121-13.818-10.039-6.6822-3.4948-9.1292-6.0938-5.7375-6.0938 5.5176 0 29.901 18.613 28.132 21.475-1.0107 1.6353-1.5669 1.2888-8.577-5.3425zm-122.73 1.68c-0.88325-1.4291-0.09901-2.2432 8.2258-8.5388 8.9853-6.7951 21.786-13.149 32.223-15.996 11.039-3.011 33.977-3.0171 45.929-0.01217 9.1501 2.3005 11.976 3.7281 10.862 5.4876-0.51146 0.80764-2.7915 0.48913-8.6541-1.2089-21.014-6.0866-44.465-3.9107-64.21 5.9576-7.0833 3.5402-16.721 10.062-19.598 13.262-1.92 2.1353-3.844 2.5577-4.7766 1.0487zm33.223-33.864c-0.77758-1.4529-0.26157-1.8712 3.7942-3.0756 7.9889-2.3724 18.965-3.5606 29.797-3.2255 5.7095 0.17663 10.636 0.57717 10.947 0.89009 0.31159 0.31292 0.33979 1.1567 0.0627 1.875-0.39833 1.0326-3.5932 1.3307-15.256 1.4239-11.415 0.09118-16.302 0.53369-21.599 1.9558-6.56 1.7611-6.8837 1.7677-7.7461 0.15632z"/>
</svg>
