<?xml version="1.0" encoding="UTF-8" standalone="no"?>
<!-- Created with Inkscape (http://www.inkscape.org/) -->
<svg id="svg4156" xmlns:rdf="http://www.w3.org/1999/02/22-rdf-syntax-ns#" xmlns="http://www.w3.org/2000/svg" height="123" viewBox="0 0 120 123" width="120" version="1.1" xmlns:cc="http://creativecommons.org/ns#" xmlns:dc="http://purl.org/dc/elements/1.1/">
 <metadata id="metadata4162">
  <rdf:RDF>
   <cc:Work rdf:about="">
    <dc:format>image/svg+xml</dc:format>
    <dc:type rdf:resource="http://purl.org/dc/dcmitype/StillImage"/>
    <dc:title/>
   </cc:Work>
  </rdf:RDF>
 </metadata>
 <path id="path4166" fill="#fff" d="m63.019 105.93c-17.437-3.78-26.554-13.634-24.976-27.001 0.839-7.106 3.878-12.173 13.43-22.391 11.246-12.029 13.681-16.086 13.622-22.689-0.025-2.747-0.677-6.201-1.449-7.676-1.862-3.557-6.777-8.104-11.408-10.553l-3.75-1.9837 3.75 0.54038c11.964 1.724 22.354 6.8743 25.279 12.53 3.288 6.3582 1.3044 13.232-7.4362 25.768-8.7274 12.518-11.943 19.815-12.491 28.342-0.70114 10.925 2.9374 18.227 11.922 23.925 3.555 2.2545 3.8406 2.6437 1.8934 2.5804-1.2611-0.041-5.0351-0.66836-8.3867-1.3942zm9.8267-7.4376c3.9278-11.836 1.9362-22.965-5.1815-28.954l-2.937-2.4713 2.3731-4.0494c3.7395-6.381 4.801-6.9054 7.599-3.7543 1.3024 1.4668 3.5314 4.9872 4.9532 7.8231 3.4386 6.8583 3.6302 16.191 0.46204 22.5-2.3744 4.7282-8.2861 11.972-7.2689 8.9062zm-24.735-50.298c-2.2974-6.5903-0.12923-16.954 4.3188-20.644 1.3493-1.1193 1.3445-0.93879-0.0469 1.7526-2.3604 4.5657-1.9667 8.1798 1.2956 11.895l2.8467 3.2423-2.9439 3.3529c-1.6191 1.8441-3.2808 3.3529-3.6925 3.3529-0.41177 0-1.2118-1.3286-1.7779-2.9524z"/>
</svg>
