<?xml version="1.0" encoding="UTF-8" standalone="no"?>
<!-- Created with Inkscape (http://www.inkscape.org/) -->
<svg id="svg4699" xmlns:rdf="http://www.w3.org/1999/02/22-rdf-syntax-ns#" xmlns="http://www.w3.org/2000/svg" height="160" viewBox="0 0 160 160" width="160" version="1.1" xmlns:cc="http://creativecommons.org/ns#" xmlns:dc="http://purl.org/dc/elements/1.1/">
 <metadata id="metadata4705">
  <rdf:RDF>
   <cc:Work rdf:about="">
    <dc:format>image/svg+xml</dc:format>
    <dc:type rdf:resource="http://purl.org/dc/dcmitype/StillImage"/>
    <dc:title/>
   </cc:Work>
  </rdf:RDF>
 </metadata>
 <path id="path5249" fill="#fff" d="m43.289 148.44c0.515-0.86 13.527-16.36 28.916-34.45 19.596-23.033 27.625-33.333 26.798-34.376-8.665-10.919-56.503-73.594-56.503-74.027 0-0.3228 18.562-0.587 41.25-0.587h41.25v72.5 72.5h-41.324c-32.725 0-41.129-0.32512-40.387-1.5625zm-8.289-70.94v-23.75h18.75 18.75v7.4347 7.4347l-6.5625 0.37782-6.5625 0.37782v8.75 8.75l6.5625 0.37782 6.5625 0.37782v6.8097 6.8097h-18.75-18.75v-23.75z"/>
</svg>
