<?xml version="1.0" encoding="UTF-8" standalone="no"?>
<!-- Created with Inkscape (http://www.inkscape.org/) -->
<svg id="svg4143" xmlns:rdf="http://www.w3.org/1999/02/22-rdf-syntax-ns#" xmlns="http://www.w3.org/2000/svg" height="500" viewBox="0 0 500 500" width="500" version="1.1" xmlns:cc="http://creativecommons.org/ns#" xmlns:dc="http://purl.org/dc/elements/1.1/">
 <metadata id="metadata4149">
  <rdf:RDF>
   <cc:Work rdf:about="">
    <dc:format>image/svg+xml</dc:format>
    <dc:type rdf:resource="http://purl.org/dc/dcmitype/StillImage"/>
    <dc:title/>
   </cc:Work>
  </rdf:RDF>
 </metadata>
 <path id="path4153" fill="#fff" d="m281 449.13c-5.775-2.0158-10.98-3.9703-11.566-4.3434-2.4575-1.5646-22.55-8.1524-28.434-9.3231-1.925-0.38294-3.9644-1.068-4.532-1.5223-1.9269-1.5423-17.923-3.3932-28.968-3.3519-6.05 0.0226-15.95 0.79508-22 1.7166-26.49 4.0347-38.678 5.838-48.5 7.1759-5.775 0.78664-13.875 2.1689-18 3.0717-10.432 2.283-13.809 2.0898-16.864-0.96444-2.3225-2.3225-2.5902-3.526-3.2941-14.809-0.42136-6.7548-0.75579-31.824-0.74316-55.708l0.02295-43.427-2.9825-2.3342c-1.6888-1.3216-3.7131-4.3898-4.6668-7.0731-0.937-2.61-2.087-5.64-2.567-6.74-4.4174-10.128-6.3266-55.493-3.451-82 0.895-8.25 1.8401-16.012 2.1001-17.25 0.537-2.55 2.435-3.08 2.435-0.67 0 1.8621 12.471 26.938 18.263 36.721 2.7481 4.6422 4.4829 6.6264 5.4641 6.2498 0.79069-0.30341 8.7131-0.79507 17.605-1.0926 16.611-0.55571 37.298-2.4884 53.168-4.9669 4.95-0.77311 15.525-2.3634 23.5-3.534s16.815-2.6006 19.645-3.1778 6.3316-0.75176 7.7813-0.38791l2.6358 0.66156-4.4154 6.2231c-3.76 5.32-12.64 21.61-12.64 23.21 0 1.9672 3.6454-0.76901 12.492-9.3765 6.0633-5.8991 12.343-10.998 15.542-12.619 2.9523-1.4961 6.5917-3.6249 8.0875-4.7308 1.9373-1.4323 5.2594-2.253 11.549-2.8532 9.9794-0.9523 30.073-3.4948 38.329-4.8498 3.025-0.49649 7.6375-0.93556 10.25-0.97571 3.2284-0.0496 4.75-0.49542 4.75-1.3917 0-0.9861-5.6253-1.8764-22.303-3.5299-34.14-3.38-46.48-6.44-48.09-11.93-1.56-5.36-2.61-14.79-2.61-23.53 0-10.523 2.5163-30.407 4.0876-32.3 1.1176-1.3467 9.2751-3.0449 20.912-4.3536 4.675-0.52573 15.925-1.8953 25-3.0435 32.812-4.1514 37.854-4.4002 90.145-4.4491 58.813-0.055 54.594-0.7051 57.012 8.7844 1.3664 5.3612 1.4878 42.239 0.35948 109.17-0.45327 26.885-0.68802 30.177-2.2612 31.706-6.5611 6.3749-35.805 28.328-50.755 38.102-3.85 2.5169-10.15 6.8292-14 9.5829s-8.8 6.2465-11 7.7619-5.8 4.1703-8 5.8998c-13.774 10.828-32.023 21.855-42.944 25.948l-8.0049 3-0.0906 8c-0.0498 4.4-0.45142 17.675-0.89243 29.5-0.66019 17.702-1.0799 21.721-2.3762 22.75-2.9922 2.3758-12.982 1.2946-24.192-2.6182zm-163.5-223.76c-10.524-1.6471-16.497-5.1176-16.501-9.5889-0.00072-0.70685-1.7654-3.8265-3.9214-6.9325-9.14-13.16-14.772-26.76-18.573-44.82-2.855-13.58-3.427-22.89-1.997-32.53 1.2476-8.4068 1.5766-9.2091 4.991-12.173 2.0104-1.745 5.3081-3.9528 7.3282-4.9062 2.0201-0.95343 7.5383-4.5039 12.263-7.8898 10.025-7.1849 23.982-13.505 31.281-14.164 7.0065-0.63316 9.9402 1.0429 10.785 6.1614 2.163 13.11 2.8857 18.573 4.3616 32.971 2.1475 20.951 5.0818 41.806 7.4571 53 2.5542 12.037 5.2761 33.367 4.6012 36.056-0.42788 1.7048-1.7598 2.4107-6.3088 3.344-6.1066 1.2528-30.703 2.2663-35.766 1.4738zm72.212-2.0181c-12.421-1.3916-18.137-3.4889-19.565-7.1779-4.12-10.65-9.37-32.45-12.32-51.17-1.9624-12.447-2.2885-18.324-2.3028-41.5-0.022-35.589 0.35794-39.716 4.0067-43.524 3.0665-3.2008 13.525-9.7161 19.977-12.445 10.915-4.6164 16.079-5.7063 29.5-6.226 12.914-0.50009 13.624-0.42464 16.351 1.7378 1.5678 1.2433 3.7572 4.3298 4.8654 6.8589 1.8207 4.1553 2.1045 7.9223 2.9454 39.098 1.2931 47.94 0.76502 104.86-0.9973 107.5-0.73478 1.1-3.103 3.3281-5.2627 4.9514-3.8076 2.8618-4.2765 2.9529-15.452 3-6.339 0.0267-16.121-0.46623-21.737-1.0955zm53.728-73.807c-1.4231-2.1719-1.5732-7.3219-1.3192-45.249 0.28393-42.387 0.30756-42.819 2.4551-44.967 3.3459-3.3459 8.6784-4.4438 24.424-5.0287 10.287-0.38216 15.807-0.16436 19 0.74964 2.475 0.70857 5.3067 1.1798 6.2926 1.0472 0.98591-0.13263 3.738 0.89894 6.1157 2.2924 4.926 2.8869 9.622 11.093 11.792 20.607 1.7197 7.5394 1.7954 53.09 0.0917 55.146-0.66448 0.80192-0.97216 2.3604-0.68374 3.4634 0.8395 3.2102-2.6261 6.426-8.6402 8.0173-3.0074 0.79574-15.368 2.1228-27.468 2.949-12.1 0.82624-22.781 1.9347-23.736 2.4632-3.1132 1.7229-6.6308 1.0933-8.3233-1.4898zm108.73-6.5165c-24.574-0.49711-26.427-0.66231-27.75-2.4738-0.77987-1.0676-1.439-3.0926-1.4648-4.5-0.30567-16.715-0.80289-30.788-1.4572-41.242-1.32-21.068-0.19-22.059 25.5-22.208 13.429-0.07793 17.562 0.24462 22.205 1.7331 6.229 1.9969 11.143 6.512 14.722 13.527 2.51 4.921 6.07 27.564 6.07 38.594 0 7.1437-0.31387 8.5888-2.5203 11.604-3.1129 4.2541-5.3885 6.0103-7.4208 5.727-0.85738-0.11953-13.408-0.45703-27.891-0.75z"/>
</svg>
