<?xml version="1.0" encoding="UTF-8" standalone="no"?>
<!-- Created with Inkscape (http://www.inkscape.org/) -->
<svg id="svg4136" xmlns:rdf="http://www.w3.org/1999/02/22-rdf-syntax-ns#" xmlns="http://www.w3.org/2000/svg" height="500" viewBox="0 0 500 500" width="500" version="1.1" xmlns:cc="http://creativecommons.org/ns#" xmlns:dc="http://purl.org/dc/elements/1.1/">
 <metadata id="metadata4142">
  <rdf:RDF>
   <cc:Work rdf:about="">
    <dc:format>image/svg+xml</dc:format>
    <dc:type rdf:resource="http://purl.org/dc/dcmitype/StillImage"/>
    <dc:title/>
   </cc:Work>
  </rdf:RDF>
 </metadata>
 <path id="path4146" fill="#fff" d="m248.68 442.5c-0.80468-1.9259-2.1386-6.7634-2.9644-10.75-1.5349-7.4106-5.9753-22.329-7.2694-24.423-0.39574-0.64032-4.5404-1.6787-9.2104-2.3075-61.19-8.24-112.13-53.71-127.43-113.72-9.621-37.73-4.195-79.54 14.63-112.8 7.598-13.421 14.866-22.817 26.687-34.5 21.375-21.126 47.336-34.97 76.773-40.94 5.5864-1.133 11.79-2.06 13.786-2.06 3.376 0 3.7702-0.33046 5.6662-4.75 1.1208-2.6125 3.1457-9.25 4.4999-14.75 4.2313-17.185 5.6462-21.5 7.0496-21.5 0.73792 0 1.3417 0.25318 1.3417 0.56262 0 2.1096 8.2416 31.853 9.8885 35.687 1.8126 4.2196 2.3897 4.75 5.1688 4.75 1.7206 0 7.6991 0.92699 13.286 2.06 30.114 6.1076 55.539 19.823 77.712 41.923 21.895 21.822 35.526 46.834 42.143 77.329 2.9836 13.75 3.2619 46.41 0.51089 59.958-2.7213 13.402-7.1337 26.016-13.723 39.23-23.249 46.627-66.585 77.18-119.13 83.989-4.5902 0.59485-4.67 0.66939-6.7548 6.3064-1.7516 4.7362-9.1001 31.931-9.1001 33.677 0 0.29018-0.47296 0.52759-1.051 0.52759-0.57806 0-1.7094-1.5757-2.5141-3.5016zm9.545-45.248 2.9151-6.25h-10.395-10.395l2.9302 6.2617c1.6116 3.4439 3.9415 10.174 5.1775 14.955l2.2473 8.6932 2.3024-8.7049c1.2663-4.7877 3.6141-11.517 5.2174-14.955zm-28.838-7.2251c-2.0928-3.9418-2.4111-5.3438-1.5324-6.75 1.0069-1.6116 3.1132-1.7749 22.891-1.7749 19.844 0 21.881 0.15916 22.891 1.7886 0.88426 1.4261 0.5408 2.8136-1.6949 6.847l-2.8039 5.0584 4.3039-0.68411c51.193-8.1372 95.782-46.197 112.3-95.859 5.901-17.739 7.0078-25.011 6.9482-45.651-0.0442-15.308-0.44296-20.304-2.311-28.957-8.1556-37.775-30.273-69.915-62.6-90.969-9.1975-5.9901-20.04-11.32-30.036-14.764-8.2566-2.8452-22.063-6.2936-25.237-6.3035l-2.237-0.007 2.2061 4.5408c3.8312 7.8858 3.6309 7.9592-21.732 7.9592-25.376 0-25.565-0.0697-21.719-7.9859 1.2205-2.5122 2.2191-4.7265 2.2191-4.9207 0-0.92534-16.611 2.9034-25.68 5.919-48.891 16.258-84.56 56.065-95.456 106.53-1.8681 8.6526-2.2668 13.649-2.311 28.957-0.0592 20.494 1.5637 30.67 7.6363 47.88 16.072 45.55 55.311 80.7 102.31 91.65 5.5 1.2814 10.964 2.3612 12.141 2.3996 2.1182 0.0691 2.1127 0.0158-0.5-4.9053zm6.8043-61.89c-2.4452-1.5761-5.7958-4.3081-7.4458-6.0712s-5.5713-4.5776-8.714-6.2545c-5.3326-2.8454-5.8198-3.413-7.2998-8.5039-1.2458-4.2852-2.2569-5.8141-4.7156-7.1299-6.6675-3.5682-11.471-8.9712-13.405-15.08l-1.8532-5.8517-6.0185-0.56201c-8.217-0.76732-9.1403-1.2546-11.561-6.1019l-2.1086-4.2221 2.7721-6.4288c2.4752-5.7402 2.7527-7.4916 2.5909-16.351-0.15494-8.4836 0.12337-10.441 1.9192-13.5 1.1552-1.9677 2.7156-3.93 3.4674-4.3607 0.75185-0.43071 1.8514-2.6807 2.4434-5 2.2238-8.7118 2.8883-9.6113 8.2844-11.214 2.7838-0.8267 5.7673-1.5202 6.63-1.541 2.7403-0.0663 10.904-12.431 14.641-22.175 2.0056-5.2297 3.2553-7.053 5.6548-8.25 3.9584-1.9747 5.7568-1.9366 8.7873 0.186 1.3527 0.94744 5.2882 2.0154 8.7455 2.3733 3.5646 0.36894 8.2178 1.6754 10.748 3.0176l4.4617 2.3669 7.5249-7.4747c6.3163-6.2742 7.8044-7.3012 9.2653-6.3947 0.9572 0.59402 4.1001 1.6438 6.9842 2.3328 4.1424 0.98963 5.8896 2.0682 8.3188 5.1353 1.6913 2.1354 5.8566 5.9793 9.2562 8.542s7.3905 6.0974 8.8686 7.8549c2.0377 2.4229 4.531 3.7428 10.313 5.4591 8.6856 2.5785 8.8915 2.8576 10.04 13.614 0.54001 5.0576 1.2485 7.3067 2.6011 8.2575 2.0474 1.4392 2.3344 6.3179 0.94665 16.088-0.6873 4.8387-1.3497 5.9554-6.427 10.835-3.1134 2.9919-5.6607 5.6961-5.6607 6.0094 0 0.31326 1.8 2.1103 4 3.9934 2.651 2.2691 4 4.2519 4 5.8792 0 3.5609-4.4804 11.851-7.7169 14.279-1.5307 1.1483-3.3456 2.5604-4.0331 3.1381-0.82764 0.69543-1.25 4.0566-1.25 9.9477v8.8974l-4.5 6.5729c-2.475 3.6151-4.5 7.6075-4.5 8.8721 0 3.9167-2.1396 5.7375-7.0138 5.9686-3.9972 0.18958-4.5218-0.0384-4.8128-2.0911-0.72073-5.0839-10.805-5.6978-18.767-1.1425-4.2705 2.4433-5.7307 2.8431-7.306 2-3.9812-2.1307-9.2583-0.56159-15.427 4.587-3.7376 3.1195-7.3236 2.9769-12.727-0.50627zm16.771-8.5241c5.3382-2.6711 9.6882-3.2729 12.194-1.6869 0.95702 0.60583 2.6735 0.0568 5.3404-1.708 5.5027-3.6415 13.773-4.1832 20.234-1.3252 5.7513 2.5441 5.5155 2.5298 5.5155 0.33297 0-0.9773 1.8-4.1725 4-7.1004s4.0209-5.6158 4.0464-5.9731c0.0255-0.35727 0.15628-4.5222 0.29056-9.2555 0.17324-6.1065 0.7406-9.3636 1.9536-11.215 0.9402-1.4349 1.7094-2.7894 1.7094-3.0099 0-0.91818-8.1129 1.1745-10.424 2.6888-1.3781 0.90295-3.2106 1.6417-4.0722 1.6417-3.2886 0-2.4867-3.0111 2.425-9.1066 2.7892-3.4613 5.0712-6.5982 5.0712-6.9709 0-0.37271-0.675-1.2378-1.5-1.9225-0.825-0.68469-1.5-1.7611-1.5-2.392 0-0.63089 2.925-5.1623 6.5-10.07 6.3308-8.6905 7.4786-11.825 5.8677-16.022-0.7837-2.0423-4.636 3.3714-10.316 14.498-2.8576 5.5973-4.6922 7.9529-7.1936 9.2369-1.8468 0.94794-4.5823 2.7076-6.0789 3.9103-2.3313 1.8735-3.0901 2.0186-5.297 1.0131-1.41-0.64-3.66-1.17-5-1.17-1.6575 0-2.8949-0.90435-3.9018-2.8515-0.81101-1.5683-2.6226-3.6037-4.0257-4.523-1.5983-1.0472-2.5511-2.5967-2.5511-4.1485 0-3.5726-3.825-3.2632-9.5567 0.77305l-4.6152 3.25-1.8243-2.25c-1.0034-1.2375-2.1518-2.25-2.552-2.25-0.40021 0-4.4092 2.475-8.9089 5.5s-8.4648 5.5-8.8114 5.5c-0.34659 0-1.8957-1.3542-3.4425-3.0092-1.5468-1.6551-4.3821-3.7926-6.3007-4.75-3.3643-1.6789-3.4989-1.963-3.786-7.9908l-0.29771-6.25h4.9728c4.817 0 5.0461 0.13319 7.3107 4.25 1.6652 3.0272 3.0535 4.3199 4.8249 4.4928 3.313 0.32346 6.7871-2.7699 7.471-6.6522 0.68438-3.8846 3.2837-10.524 5.8076-14.835 1.671-2.8541 1.7132-3.3162 0.35045-3.8392-0.99762-0.38282-4.5033 1.8603-9.8456 6.2998l-8.2964 6.8943-6.7892-0.55514c-5.901-0.48251-6.9476-0.87189-8-2.9762-1.6994-3.398-3.9809-4.0033-3.1884-0.84586 0.49901 1.9882-0.0827 2.9502-3.2064 5.3028-2.0988 1.5806-4.476 3.7942-5.2827 4.919-0.80669 1.1248-4.2581 5.0264-7.6698 8.6702-6.2113 6.6338-10.848 14.237-11.511 18.873-0.33142 2.3208 0.004 2.5164 5.5198 3.2156 3.23 0.40951 6.5253 1.2862 7.323 1.9483 0.79771 0.66205 2.6916 3.9338 4.2086 7.2706 3.0236 6.6506 4.1687 7.8606 10.946 11.567 4.0527 2.2163 4.7969 3.1809 6.557 8.5 2.1073 6.3681 3.0423 7.4657 8.5925 10.086 1.925 0.90888 4.85 2.9041 6.5 4.4338s4.7623 3.9592 6.9163 5.3988c3.8664 2.5842 3.9428 2.5932 6 0.70972 1.1461-1.0493 4.4313-3.0825 7.3005-4.5181zm-15.388-19.068c-1.7442-0.75871-3.6422-2.2595-4.2178-3.335-1.181-2.2068-0.23354-3.3063 6.1391-7.1239 2.0625-1.2356 3.75-2.7073 3.75-3.2706 0-0.56325-1.125-2.3611-2.5-3.9952-3.293-3.9134-3.4066-9.6254-0.25-12.563 2.8096-2.6142 12.821-5.2565 19.894-5.2506 4.6145 0.004 6.2551 0.59385 11.856 4.2636 8.67 5.6809 8.566 7.2046-0.5 7.3248-6.9379 0.092-16.5 3.1362-16.5 5.253 0 0.50427 1.575 2.1182 3.5 3.5864 1.925 1.4683 3.5 3.0913 3.5 3.6067 0 0.51539-3.4045 3.6425-7.5655 6.9491-8.1603 6.4847-10.956 7.2292-17.106 4.5543zm27.973-8.198c-0.68323-1.7804 3.1871-5.6812 5.0281-5.0676 1.7312 0.57707 3.023 3.3611 2.3606 5.0874-0.85145 2.2188-6.5355 2.2036-7.3887-0.0198zm-58.635-6.0109c-0.36667-0.36666-0.66667-1.925-0.66667-3.463 0-2.4145-0.78526-3.177-5.75-5.5833-6.6335-3.2152-7.5863-5.6883-4.2649-11.071 2.8517-4.6211 4.6163-4.9724 8.1192-1.6165l2.9849 2.8597 6.4296-3.4699c6.0643-3.2727 6.5267-3.3728 8.1384-1.7611s1.5279 2.0594-1.4743 7.8805c-1.7506 3.3945-3.183 6.716-3.183 7.3812 0 0.66522-1.3528 3.077-3.0063 5.3595-2.7519 3.7988-5.639 5.1714-7.3271 3.4834zm60.43-68.83c2.8609-3.025 5.6635-5.5 6.2279-5.5 0.56441 0 1.8376 0.73431 2.8293 1.6318 1.6692 1.5106 1.9997 1.503 4.4506-0.10288 2.4184-1.5846 2.593-2.132 2.0179-6.3275-0.68595-5.0046-1.7541-6.1627-5.7052-6.1861-1.4251-0.008-4.8001-0.68544-7.5-1.5045-2.6999-0.81904-5.1339-1.4928-5.4089-1.4972-0.275-0.004-0.5 2.6139-0.5 5.8185 0 4.8134-0.47735 6.4521-2.7453 9.4243-2.706 3.5464-2.7203 3.6417-1 6.6644 0.95992 1.6866 1.8323 3.0694 1.9387 3.0729 0.10636 0.003 2.5341-2.4687 5.395-5.4937zm-9.1237-108.76c-1.6116-3.4439-3.9415-10.174-5.1775-14.955l-2.2473-8.6933-2.3024 8.7049c-1.26 4.786-3.61 11.513-5.21 14.953l-2.9151 6.25h10.395 10.395l-2.9302-6.2617z"/>
</svg>
