<?xml version="1.0" encoding="UTF-8" standalone="no"?>
<!-- Created with Inkscape (http://www.inkscape.org/) -->
<svg id="svg4176" xmlns:rdf="http://www.w3.org/1999/02/22-rdf-syntax-ns#" xmlns="http://www.w3.org/2000/svg" height="500" viewBox="0 0 500 500" width="500" version="1.1" xmlns:cc="http://creativecommons.org/ns#" xmlns:dc="http://purl.org/dc/elements/1.1/">
 <metadata id="metadata4182">
  <rdf:RDF>
   <cc:Work rdf:about="">
    <dc:format>image/svg+xml</dc:format>
    <dc:type rdf:resource="http://purl.org/dc/dcmitype/StillImage"/>
    <dc:title/>
   </cc:Work>
  </rdf:RDF>
 </metadata>
 <path id="path4186" fill="#fff" d="m248.95 440.42c-0.61797-1.6021-1.7947-5.8378-2.615-9.4128-1.864-8.1242-7.0294-25.054-8.186-26.829-0.489-0.75078-4.226-1.7464-8.587-2.2878-18.028-2.2382-39.581-9.5181-56.011-18.919-25.578-14.635-49.314-40.306-61.97-67.025-7.3961-15.613-10.898-27.88-14.17-49.63-0.42533-2.8279-1.1302-3.4359-6.1957-5.3435-3.1437-1.1839-12.016-3.7984-19.716-5.8101s-13.888-4.1071-13.75-4.6565c0.29206-1.167 7.2967-3.4524 19.25-6.2807 4.675-1.1062 11.063-2.9811 14.196-4.1666 5.6299-2.1301 5.7037-2.2103 6.3115-6.8535 6.5738-50.217 32.91-90.483 75.733-115.79 15.855-9.3692 39.964-17.579 55.998-19.069 3.8064-0.35377 7.5509-1.2734 8.3212-2.0437 1.4808-1.4808 6.2719-16.383 8.7761-27.297 2.0166-8.7892 3.5369-12.53 4.6376-11.413 0.49447 0.50206 2.4647 7.0339 4.3782 14.515 1.9135 7.4813 4.5319 16.256 5.8186 19.5l2.3394 5.8977 6.162 0.68028c27.024 2.9834 56.443 15.991 79.003 34.93 28.974 24.324 49.21 61.609 53.124 97.885l0.70096 6.4952 6 2.3803c3.3 1.3092 9.825 3.2755 14.5 4.3695 11.851 2.7733 18.956 5.0834 19.25 6.2586 0.1375 0.54942-6.1114 2.6549-13.887 4.679-7.7751 2.024-16.775 4.7245-20 6.0011-5.4624 2.1623-5.8829 2.5605-6.1479 5.821-0.44461 5.4712-3.1634 18.803-5.4043 26.5-11.656 40.037-40.794 74.826-78.262 93.439-16.307 8.1011-30.57 12.395-51.741 15.575-3.4233 0.51425-3.8472 0.96896-5.8457 6.2702-1.1851 3.1437-3.7154 11.791-5.6228 19.216s-3.8727 13.911-4.3671 14.413c-0.53716 0.5454-1.3513-0.25963-2.0226-2zm9.0291-46.163 2.9151-6.25h-10.395-10.395l2.9302 6.2617c1.6116 3.4439 3.9415 10.174 5.1775 14.955l2.2473 8.6932 2.3024-8.7049c1.2663-4.7877 3.6141-11.517 5.2174-14.955zm-28.394-6.876c-3.0333-5.4272-3.0743-5.7424-1.0141-7.8026 1.3256-1.3256 4.7554-1.5714 21.929-1.5714 17.173 0 20.603 0.24578 21.929 1.5714 2.0602 2.0602 2.0192 2.3754-1.0141 7.8026l-2.5855 4.626h2.5179c3.811 0 24.296-5.5325 31.631-8.543 19.31-7.9246 32.219-16.565 47.662-31.901 16.578-16.463 27.678-33.546 33.964-52.273 3.059-9.1124 7.5682-28.443 6.8113-29.2-0.28755-0.28754-2.4113 0.47744-4.7195 1.7-4.9941 2.6451-5.1149 2.6561-7.1252 0.64579-1.3256-1.3256-1.5714-4.7554-1.5714-21.929 0-17.173 0.24578-20.603 1.5714-21.929 2.0103-2.0103 2.1311-1.9994 7.1252 0.64579 2.3082 1.2225 4.4286 1.9909 4.712 1.7074 0.28342-0.28343-0.37213-4.8595-1.4568-10.169-10.773-52.734-52.306-96.202-104.37-109.23-4.9968-1.2502-10.828-2.5863-12.959-2.9691l-3.8738-0.69604 2.6238 4.6945c3.0742 5.5003 3.1153 5.8082 1.0524 7.8712-2.3432 2.3432-41.514 2.3432-43.857 0-2.0602-2.0602-2.0192-2.3754 1.0141-7.8026 1.422-2.5443 2.0892-4.626 1.4826-4.626-3.1353 0-21.536 4.5742-29.011 7.2119-29.512 10.413-56.12 31.619-73.26 58.386-8.2422 12.872-16.121 32.382-19.225 47.61-2.345 11.502-2.3772 11.413 3.0545 8.3776 5.4272-3.0333 5.7424-3.0743 7.8026-1.0141 2.3432 2.3432 2.3432 41.514 0 43.857-2.0647 2.0647-2.3679 2.0235-7.9156-1.0772l-4.739-2.6487 0.6864 4.3987c2.3262 14.907 9.6747 35.432 17.455 48.754 13.996 23.965 37.229 45.52 61.599 57.151 13.065 6.2356 33.994 12.621 42.321 12.912l2.3355 0.0815-2.5855-4.626zm14.962-63.247c-3.0626-2.68-20.401-19.218-38.53-36.75-24.443-23.639-32.969-32.478-32.99-34.201-0.0203-1.6708 4.5356-7.0099 16.213-19 45.906-47.135 54.53-55.876 57.612-58.388 3.1218-2.5449 3.5353-2.6336 6-1.2884 1.4559 0.79467 18.254 16.87 37.329 35.722 40.227 39.758 38.901 37.758 31.129 46.93-6.5287 7.7048-69.328 71.848-70.343 71.848-0.46853 0-3.3576-2.1928-6.4203-4.8728zm9.5666-8.4242 3.6146-4.2314-7.1146 0.9375c-3.913 0.51563-7.3068 1.0892-7.5417 1.2746-0.67649 0.53397 5.1838 6.3199 6.3642 6.2835 0.5846-0.018 2.6895-1.9369 4.6775-4.2642zm-0.80485-6.1852c5.5507-0.22942 7.2765-0.71932 9.334-2.6496l2.5242-2.3682-3.834-0.71728c-4.2709-0.79902-26.36-0.84669-27.671-0.0597-0.46029 0.27635 0.66471 2.0544 2.5 3.9512 2.9499 3.0487 3.7429 3.372 6.8369 2.7869 1.925-0.364 6.5644-0.78847 10.31-0.94327zm21.19-14.518 5.9374-6h-25.572c-14.065 0-28.451-0.27703-31.969-0.61563l-6.3967-0.61564 5.7423 5.847 5.7423 5.847 15.758-0.19136c13.24-0.16079 17.354 0.11248 24.289 1.6136 0.29222 0.0632 3.2031-2.585 6.4687-5.885zm10-11 2.8742-3h-3.2203c-2.9005 0-9.7749-2.9851-14.409-6.257-1.5299-1.0802-2.4548-0.46969-7.2103 4.7589l-5.4553 5.998 11.21 0.55053c6.1656 0.3028 11.689 0.6403 12.273 0.75 0.5846 0.10971 2.3563-1.1505 3.9371-2.8005zm-41.5-1.1694c-1.925-1.7408-4.9441-4.5103-6.709-6.1543-2.3905-2.2267-3.5383-2.7174-4.5-1.9236-4.0853 3.3718-22.791 6.9738-22.791 4.3887 0-0.87221 13.165-6.3957 18.323-7.6878l2.8233-0.70716-3.2644-3.368c-3.2399-3.3427-3.2798-3.3535-5.3233-1.4398-2.5664 2.4034-6.8575 4.0708-10.374 4.031-2.5023-0.0283-2.5489-0.10529-0.6849-1.1317 2.7403-1.5089 8.5-7.0245 8.5-8.1397 0-0.50021-1.125-2.2465-2.5-3.8806-2.8058-3.3344-3.0637-4.9421-1.2573-7.8346 0.91938-1.4722 0.95668-2.4443 0.14334-3.7364-0.9169-1.4567-2.908-1.7931-11.997-2.027l-10.897-0.28045-5.4678 5.5365-5.4678 5.5366 8.457 8.5011c4.6513 4.6756 9.2512 8.7532 10.222 9.0613 0.97068 0.30809 1.7649 1.0363 1.7649 1.6184 0 0.58201 2.8125 3.657 6.25 6.8333l6.25 5.7751 16 0.0972 16 0.0972-3.5-3.1652zm-38.53-21.04c1.0833-0.7096 3.1763-2.5277 4.6512-4.0402 3.1532-3.2336 3.8792-3.403 3.8792-0.90499 0 2.597-3.0306 5.0347-7.0656 5.6833-3.0707 0.49361-3.2258 0.41545-1.4648-0.73812zm87.365 14.886c1.2009-1.2783 1.8794-2.6283 1.5076-3-0.3717-0.37169-0.031-0.67581 0.75717-0.67581 0.78813 0 6.594-5.1757 12.902-11.502l11.469-11.502-4.4853-4.4356c-4.4175-4.3685-4.5533-4.422-8.9853-3.542-2.475 0.49147-8.2606 0.91318-12.857 0.93713-7.1992 0.0375-8.2729 0.2627-7.75 1.6253 0.33385 0.86998 0.60699 2.9143 0.60699 4.5428 0 2.143 1.2811 4.3306 4.6368 7.9182 4.1262 4.4112 4.391 4.9572 2.4044 4.9572-1.2279 0-3.5364-0.92846-5.13-2.0632-3.1201-2.2217-4.9112-1.876-4.9112 0.94793 0 2.404 3.5852 5.5834 9 7.9813l4.5 1.9928-4 0.0669c-4.4876 0.0751-9.7498-2.6553-11.531-5.9828-1.1416-2.133-1.2146-2.1092-5.0638 1.6494-2.1481 2.0975-3.9056 4.1008-3.9056 4.4518 0 1.6902 11.577 6.7217 18.076 7.8555 0.31662 0.0553 1.5582-0.94543 2.7591-2.2237zm-37.819-4.191 2.6253-2.5152-12.618-12.485c-6.9398-6.8666-13.081-12.485-13.646-12.485-0.56563 0-2.1194 1.1629-3.4527 2.5843l-2.4243 2.5843 12.713 12.416c6.9921 6.8286 13.042 12.416 13.445 12.416 0.40286 0 1.9138-1.1318 3.3578-2.5152zm8.5222-8.5269c1.8254-2.0171 1.6959-2.197-10.595-14.716-6.8437-6.9707-12.557-12.879-12.697-13.129-0.13967-0.24998-1.3915 0.61416-2.7818 1.9203l-2.5279 2.3748 12.767 12.796c7.0221 7.0377 13.042 12.796 13.377 12.796 0.3352 0 1.4411-0.91892 2.4575-2.042zm9.1843-10.173 3.3176-3.2155-12.255-12.284c-6.7402-6.7565-12.69-12.284-13.222-12.284-0.53207 0-2.4228 1.4107-4.2017 3.1348l-3.2343 3.1348 12.687 12.324c6.9777 6.7781 12.89 12.342 13.139 12.365 0.24882 0.0228 1.9453-1.4056 3.77-3.1741zm-24.824-45.415c3.078-1.26 3.7202-1.2016 6.8072 0.61979 3.8426 2.2672 8.2942 2.6609 8.2942 0.73354 0-0.70265-2.7384-3.688-6.0854-6.6342l-6.0854-5.3566-5.8673 5.8061c-7.7319 7.6512-6.9787 8.8904 2.9368 4.8314zm-134.9 42.183v-10.447l-6.2617 2.9302c-3.4439 1.6116-10.174 3.9415-14.955 5.1775l-8.6933 2.2473 8.7049 2.3047c4.7877 1.2676 11.405 3.6024 14.705 5.1884s6.1125 2.9204 6.25 2.9653c0.1375 0.0448 0.25-4.6198 0.25-10.366zm298.82 1.7746 7.3203-1.7259-8.8203-2.333c-4.8512-1.2831-11.633-3.6448-15.07-5.248l-6.25-2.9151v10.343 10.343l7.75-3.3693c4.2625-1.8531 11.044-4.1459 15.07-5.0952zm-152.86-146.58c-1.6116-3.4439-3.9415-10.174-5.1775-14.955l-2.2473-8.6933-2.3024 8.7049c-1.2663 4.7877-3.6141 11.517-5.2174 14.955l-2.9151 6.25h10.395 10.395l-2.9302-6.2617z"/>
</svg>
