<?xml version="1.0" encoding="UTF-8" standalone="no"?>
<!-- Created with Inkscape (http://www.inkscape.org/) -->
<svg id="svg4147" xmlns:rdf="http://www.w3.org/1999/02/22-rdf-syntax-ns#" xmlns="http://www.w3.org/2000/svg" height="240" viewBox="0 0 240 240" width="240" version="1.1" xmlns:cc="http://creativecommons.org/ns#" xmlns:dc="http://purl.org/dc/elements/1.1/">
 <metadata id="metadata4153">
  <rdf:RDF>
   <cc:Work rdf:about="">
    <dc:format>image/svg+xml</dc:format>
    <dc:type rdf:resource="http://purl.org/dc/dcmitype/StillImage"/>
    <dc:title/>
   </cc:Work>
  </rdf:RDF>
 </metadata>
 <path id="path4697" fill="#fff" d="m110.02 235.08c-44.535-3.4117-83.795-33.346-99.241-75.668-8.9709-24.581-8.9709-54.45 0-79.031 14.063-38.532 48.267-67.249 88.602-74.387 10.923-1.9331 30.319-1.9331 41.242 0 40.336 7.1384 74.54 35.855 88.602 74.387 8.8299 24.194 8.9646 53.984 0.35369 78.172-5.8385 16.4-17.194 33.681-29.975 45.617-24.299 22.693-55.649 33.51-89.584 30.91zm28.238-5.0689c47.152-7.6468 84.681-45.176 92.328-92.328 10.97-67.682-41.74-129.34-110.59-129.34-68.839-0.0002-121.56 61.658-110.58 129.34 6.635 40.91 35.666 74.88 75.347 88.18 16.23 5.4377 36.077 6.979 53.493 4.1545zm-31.38-6.181c-24.582-3.11-45.726-13.91-63.294-32.33-40.093-42.05-38.188-107.19 4.315-147.56 14.679-13.938 30.696-22.266 51.479-26.762 8.4345-1.8245 32.659-2.1953 37.5-0.5741 2.552 0.8546 2.3095 0.94931-2.6176 1.0224-22.34 0.332-44.851 12.762-57.846 31.938-13.088 19.315-15.872 45.063-7.194 66.546 3.9149 9.6924 8.2742 16.115 16.586 24.436 9.206 9.2166 20.184 15.573 32.536 18.839 9.2813 2.4542 25.134 2.6838 34.232 0.4958 26.988-6.4903 47.57-26.97 54.289-54.022 1.6424-6.612 1.8955-9.8259 1.5135-19.219-0.51838-12.747-2.9798-21.707-8.8644-32.266-4.2738-7.6691-2.8221-6.7257 4.4012 2.8604 13.98 18.553 20.696 38.885 20.696 62.658 0 18.507-3.3401 32.327-11.71 48.449-19.959 38.446-62.92 60.929-106.02 55.485z"/>
</svg>
