<?xml version="1.0" encoding="UTF-8" standalone="no"?>
<!-- Created with Inkscape (http://www.inkscape.org/) -->
<svg id="svg4136" xmlns:rdf="http://www.w3.org/1999/02/22-rdf-syntax-ns#" xmlns="http://www.w3.org/2000/svg" height="160" viewBox="0 0 160 160" width="160" version="1.1" xmlns:cc="http://creativecommons.org/ns#" xmlns:dc="http://purl.org/dc/elements/1.1/">
 <metadata id="metadata4142">
  <rdf:RDF>
   <cc:Work rdf:about="">
    <dc:format>image/svg+xml</dc:format>
    <dc:type rdf:resource="http://purl.org/dc/dcmitype/StillImage"/>
    <dc:title/>
   </cc:Work>
  </rdf:RDF>
 </metadata>
 <path id="path4146" fill="#fff" d="m49.993 130.84v-18.675l15-14.961 15-14.961 15 14.961 15 14.961v18.75 18.75l-15.058-14.98-15.058-14.98-11.65 11.875c-6.4074 6.5312-13.131 13.239-14.942 14.905l-3.2925 3.0304v-18.675zm-19.077-43.959-13.424-13.466 13.758-13.715 13.757-13.714 13.424 13.423 13.423 13.423-13.757 13.757-13.757 13.761-13.424-13.469zm70.944-0.306-13.713-13.757 13.423-13.423 13.42-13.424 13.76 13.757 13.76 13.757-13.47 13.424-13.46 13.421-13.72-13.755zm-35.327-35.327c-7.034-7.058-12.79-13.397-12.79-14.085 0-0.68804 5.7752-7.0066 12.834-14.041l12.834-12.79 13.707 13.75 13.702 13.749-13.076 13.126c-7.1945 7.219-13.382 13.126-13.751 13.126-0.36832 0-6.4252-5.7752-13.46-12.834z"/>
</svg>
